G75*
%MOIN*%
%OFA0B0*%
%FSLAX25Y25*%
%IPPOS*%
%LPD*%
%AMOC8*
5,1,8,0,0,1.08239X$1,22.5*
%
%ADD10C,0.00512*%
%ADD11C,0.00600*%
%ADD12C,0.00000*%
%ADD13C,0.06024*%
%ADD14C,0.07050*%
%ADD15C,0.10000*%
%ADD16C,0.05200*%
%ADD17C,0.06496*%
%ADD18C,0.08858*%
%ADD19C,0.01200*%
D10*
X0013342Y0002513D02*
X0013342Y0002513D01*
X0013342Y0002513D01*
X0013342Y0002769D02*
X0014365Y0012749D01*
X0014599Y0012749D02*
X0013342Y0002769D01*
X0012318Y0012749D01*
X0012085Y0012749D02*
X0014599Y0012749D01*
X0013854Y0012749D02*
X0013342Y0002769D01*
X0012830Y0012749D01*
X0012085Y0012749D02*
X0013342Y0002769D01*
X0013342Y0399895D01*
X0014365Y0389914D01*
X0014599Y0389914D02*
X0013342Y0399895D01*
X0012318Y0389914D01*
X0012085Y0389914D02*
X0014599Y0389914D01*
X0013854Y0389914D02*
X0013342Y0399895D01*
X0012830Y0389914D01*
X0012085Y0389914D02*
X0013342Y0399895D01*
X0013342Y0400151D02*
X0013342Y0400151D01*
X0013342Y0400151D01*
X0013598Y0400151D02*
X0023578Y0399127D01*
X0023578Y0398894D02*
X0013598Y0400151D01*
X0023578Y0401174D01*
X0023578Y0401407D02*
X0023578Y0398894D01*
X0023578Y0399639D02*
X0013598Y0400151D01*
X0023578Y0400662D01*
X0023578Y0401407D02*
X0013598Y0400151D01*
X0493401Y0400151D01*
X0483421Y0399127D01*
X0483421Y0398894D02*
X0493401Y0400151D01*
X0483421Y0401174D01*
X0483421Y0401407D02*
X0483421Y0398894D01*
X0483421Y0399639D02*
X0493401Y0400151D01*
X0483421Y0400662D01*
X0483421Y0401407D02*
X0493401Y0400151D01*
X0493657Y0400151D02*
X0493657Y0400151D01*
X0493657Y0400151D01*
X0493657Y0399895D02*
X0494680Y0389914D01*
X0494914Y0389914D02*
X0493657Y0399895D01*
X0492633Y0389914D01*
X0492400Y0389914D02*
X0494914Y0389914D01*
X0494169Y0389914D02*
X0493657Y0399895D01*
X0493145Y0389914D01*
X0492400Y0389914D02*
X0493657Y0399895D01*
X0493657Y0006706D01*
X0494680Y0016686D01*
X0494914Y0016686D02*
X0493657Y0006706D01*
X0492633Y0016686D01*
X0492400Y0016686D02*
X0494914Y0016686D01*
X0494169Y0016686D02*
X0493657Y0006706D01*
X0493145Y0016686D01*
X0492400Y0016686D02*
X0493657Y0006706D01*
X0493657Y0006450D02*
X0493657Y0006450D01*
X0493657Y0002513D02*
X0493657Y0002513D01*
X0493401Y0002513D02*
X0483421Y0001489D01*
X0483421Y0001256D02*
X0493401Y0002513D01*
X0483421Y0003536D01*
X0483421Y0003770D02*
X0483421Y0001256D01*
X0483421Y0002001D02*
X0493401Y0002513D01*
X0483421Y0003025D01*
X0483421Y0003770D02*
X0493401Y0002513D01*
X0013598Y0002513D01*
X0023578Y0001489D01*
X0023578Y0001256D02*
X0013598Y0002513D01*
X0023578Y0003536D01*
X0023578Y0003770D02*
X0023578Y0001256D01*
X0023578Y0002001D02*
X0013598Y0002513D01*
X0023578Y0003025D01*
X0023578Y0003770D02*
X0013598Y0002513D01*
D11*
X0010780Y0186310D02*
X0010780Y0189866D01*
X0010780Y0188088D02*
X0004380Y0188088D01*
X0005802Y0186310D01*
X0007580Y0196019D02*
X0007721Y0196017D01*
X0007861Y0196011D01*
X0008002Y0196002D01*
X0008142Y0195989D01*
X0008282Y0195972D01*
X0008421Y0195952D01*
X0008559Y0195927D01*
X0008697Y0195899D01*
X0008834Y0195868D01*
X0008971Y0195832D01*
X0009106Y0195793D01*
X0009240Y0195751D01*
X0009373Y0195705D01*
X0009505Y0195655D01*
X0009635Y0195602D01*
X0009764Y0195546D01*
X0009891Y0195486D01*
X0009891Y0195487D02*
X0009957Y0195462D01*
X0010022Y0195434D01*
X0010086Y0195402D01*
X0010147Y0195367D01*
X0010207Y0195328D01*
X0010265Y0195287D01*
X0010320Y0195242D01*
X0010372Y0195194D01*
X0010422Y0195144D01*
X0010470Y0195091D01*
X0010514Y0195035D01*
X0010555Y0194978D01*
X0010593Y0194918D01*
X0010628Y0194856D01*
X0010659Y0194792D01*
X0010687Y0194727D01*
X0010712Y0194660D01*
X0010732Y0194593D01*
X0010749Y0194524D01*
X0010763Y0194454D01*
X0010772Y0194384D01*
X0010778Y0194313D01*
X0010780Y0194242D01*
X0010778Y0194171D01*
X0010772Y0194100D01*
X0010763Y0194030D01*
X0010749Y0193960D01*
X0010732Y0193891D01*
X0010712Y0193824D01*
X0010687Y0193757D01*
X0010659Y0193692D01*
X0010628Y0193628D01*
X0010593Y0193566D01*
X0010555Y0193506D01*
X0010514Y0193448D01*
X0010470Y0193393D01*
X0010422Y0193340D01*
X0010372Y0193290D01*
X0010320Y0193242D01*
X0010265Y0193197D01*
X0010207Y0193156D01*
X0010147Y0193117D01*
X0010086Y0193082D01*
X0010022Y0193050D01*
X0009957Y0193022D01*
X0009891Y0192997D01*
X0009358Y0192820D02*
X0005802Y0195664D01*
X0005269Y0195487D02*
X0005203Y0195462D01*
X0005138Y0195434D01*
X0005074Y0195402D01*
X0005013Y0195367D01*
X0004953Y0195328D01*
X0004895Y0195287D01*
X0004840Y0195242D01*
X0004788Y0195194D01*
X0004738Y0195144D01*
X0004690Y0195091D01*
X0004646Y0195036D01*
X0004605Y0194978D01*
X0004567Y0194918D01*
X0004532Y0194856D01*
X0004501Y0194792D01*
X0004473Y0194727D01*
X0004448Y0194660D01*
X0004428Y0194593D01*
X0004411Y0194524D01*
X0004397Y0194454D01*
X0004388Y0194384D01*
X0004382Y0194313D01*
X0004380Y0194242D01*
X0004382Y0194171D01*
X0004388Y0194100D01*
X0004397Y0194030D01*
X0004411Y0193960D01*
X0004428Y0193891D01*
X0004448Y0193824D01*
X0004473Y0193757D01*
X0004501Y0193692D01*
X0004532Y0193628D01*
X0004567Y0193566D01*
X0004605Y0193506D01*
X0004646Y0193448D01*
X0004690Y0193393D01*
X0004738Y0193340D01*
X0004788Y0193290D01*
X0004840Y0193242D01*
X0004895Y0193197D01*
X0004953Y0193156D01*
X0005013Y0193117D01*
X0005074Y0193082D01*
X0005138Y0193050D01*
X0005203Y0193022D01*
X0005269Y0192997D01*
X0005269Y0195487D02*
X0005396Y0195547D01*
X0005525Y0195603D01*
X0005655Y0195656D01*
X0005787Y0195706D01*
X0005920Y0195752D01*
X0006054Y0195794D01*
X0006189Y0195833D01*
X0006326Y0195869D01*
X0006463Y0195900D01*
X0006601Y0195928D01*
X0006739Y0195953D01*
X0006878Y0195973D01*
X0007018Y0195990D01*
X0007158Y0196003D01*
X0007299Y0196012D01*
X0007439Y0196018D01*
X0007580Y0196020D01*
X0007580Y0192464D02*
X0007439Y0192466D01*
X0007299Y0192472D01*
X0007158Y0192481D01*
X0007018Y0192494D01*
X0006878Y0192511D01*
X0006739Y0192531D01*
X0006601Y0192556D01*
X0006463Y0192584D01*
X0006326Y0192615D01*
X0006189Y0192651D01*
X0006054Y0192690D01*
X0005920Y0192732D01*
X0005787Y0192778D01*
X0005655Y0192828D01*
X0005525Y0192881D01*
X0005396Y0192937D01*
X0005269Y0192997D01*
X0007580Y0192464D02*
X0007721Y0192466D01*
X0007861Y0192472D01*
X0008002Y0192481D01*
X0008142Y0192494D01*
X0008282Y0192511D01*
X0008421Y0192531D01*
X0008559Y0192556D01*
X0008697Y0192584D01*
X0008834Y0192615D01*
X0008971Y0192651D01*
X0009106Y0192690D01*
X0009240Y0192732D01*
X0009373Y0192778D01*
X0009505Y0192828D01*
X0009635Y0192881D01*
X0009764Y0192937D01*
X0009891Y0192997D01*
X0010780Y0198618D02*
X0010780Y0202174D01*
X0010780Y0200396D02*
X0004380Y0200396D01*
X0005802Y0198618D01*
X0007580Y0210789D02*
X0007721Y0210787D01*
X0007861Y0210781D01*
X0008002Y0210772D01*
X0008142Y0210759D01*
X0008282Y0210742D01*
X0008421Y0210722D01*
X0008559Y0210697D01*
X0008697Y0210669D01*
X0008834Y0210638D01*
X0008971Y0210602D01*
X0009106Y0210563D01*
X0009240Y0210521D01*
X0009373Y0210475D01*
X0009505Y0210425D01*
X0009635Y0210372D01*
X0009764Y0210316D01*
X0009891Y0210256D01*
X0009891Y0210257D02*
X0009957Y0210232D01*
X0010022Y0210204D01*
X0010086Y0210172D01*
X0010147Y0210137D01*
X0010207Y0210098D01*
X0010265Y0210057D01*
X0010320Y0210012D01*
X0010372Y0209964D01*
X0010422Y0209914D01*
X0010470Y0209861D01*
X0010514Y0209805D01*
X0010555Y0209748D01*
X0010593Y0209688D01*
X0010628Y0209626D01*
X0010659Y0209562D01*
X0010687Y0209497D01*
X0010712Y0209430D01*
X0010732Y0209363D01*
X0010749Y0209294D01*
X0010763Y0209224D01*
X0010772Y0209154D01*
X0010778Y0209083D01*
X0010780Y0209012D01*
X0010778Y0208941D01*
X0010772Y0208870D01*
X0010763Y0208800D01*
X0010749Y0208730D01*
X0010732Y0208661D01*
X0010712Y0208594D01*
X0010687Y0208527D01*
X0010659Y0208462D01*
X0010628Y0208398D01*
X0010593Y0208336D01*
X0010555Y0208276D01*
X0010514Y0208218D01*
X0010470Y0208163D01*
X0010422Y0208110D01*
X0010372Y0208060D01*
X0010320Y0208012D01*
X0010265Y0207967D01*
X0010207Y0207926D01*
X0010147Y0207887D01*
X0010086Y0207852D01*
X0010022Y0207820D01*
X0009957Y0207792D01*
X0009891Y0207767D01*
X0009358Y0207589D02*
X0005802Y0210434D01*
X0005269Y0210257D02*
X0005203Y0210232D01*
X0005138Y0210204D01*
X0005074Y0210172D01*
X0005013Y0210137D01*
X0004953Y0210098D01*
X0004895Y0210057D01*
X0004840Y0210012D01*
X0004788Y0209964D01*
X0004738Y0209914D01*
X0004690Y0209861D01*
X0004646Y0209806D01*
X0004605Y0209748D01*
X0004567Y0209688D01*
X0004532Y0209626D01*
X0004501Y0209562D01*
X0004473Y0209497D01*
X0004448Y0209430D01*
X0004428Y0209363D01*
X0004411Y0209294D01*
X0004397Y0209224D01*
X0004388Y0209154D01*
X0004382Y0209083D01*
X0004380Y0209012D01*
X0004382Y0208941D01*
X0004388Y0208870D01*
X0004397Y0208800D01*
X0004411Y0208730D01*
X0004428Y0208661D01*
X0004448Y0208594D01*
X0004473Y0208527D01*
X0004501Y0208462D01*
X0004532Y0208398D01*
X0004567Y0208336D01*
X0004605Y0208276D01*
X0004646Y0208218D01*
X0004690Y0208163D01*
X0004738Y0208110D01*
X0004788Y0208060D01*
X0004840Y0208012D01*
X0004895Y0207967D01*
X0004953Y0207926D01*
X0005013Y0207887D01*
X0005074Y0207852D01*
X0005138Y0207820D01*
X0005203Y0207792D01*
X0005269Y0207767D01*
X0005269Y0210256D02*
X0005396Y0210316D01*
X0005525Y0210372D01*
X0005655Y0210425D01*
X0005787Y0210475D01*
X0005920Y0210521D01*
X0006054Y0210563D01*
X0006189Y0210602D01*
X0006326Y0210638D01*
X0006463Y0210669D01*
X0006601Y0210697D01*
X0006739Y0210722D01*
X0006878Y0210742D01*
X0007018Y0210759D01*
X0007158Y0210772D01*
X0007299Y0210781D01*
X0007439Y0210787D01*
X0007580Y0210789D01*
X0009891Y0216410D02*
X0009764Y0216470D01*
X0009635Y0216526D01*
X0009505Y0216579D01*
X0009373Y0216629D01*
X0009240Y0216675D01*
X0009106Y0216717D01*
X0008971Y0216756D01*
X0008834Y0216792D01*
X0008697Y0216823D01*
X0008559Y0216851D01*
X0008421Y0216876D01*
X0008282Y0216896D01*
X0008142Y0216913D01*
X0008002Y0216926D01*
X0007861Y0216935D01*
X0007721Y0216941D01*
X0007580Y0216943D01*
X0007580Y0213388D02*
X0007439Y0213390D01*
X0007299Y0213396D01*
X0007158Y0213405D01*
X0007018Y0213418D01*
X0006878Y0213435D01*
X0006739Y0213455D01*
X0006601Y0213480D01*
X0006463Y0213508D01*
X0006326Y0213539D01*
X0006189Y0213575D01*
X0006054Y0213614D01*
X0005920Y0213656D01*
X0005787Y0213702D01*
X0005655Y0213752D01*
X0005525Y0213805D01*
X0005396Y0213861D01*
X0005269Y0213921D01*
X0004380Y0215166D02*
X0004382Y0215237D01*
X0004388Y0215308D01*
X0004397Y0215378D01*
X0004411Y0215448D01*
X0004428Y0215517D01*
X0004448Y0215584D01*
X0004473Y0215651D01*
X0004501Y0215716D01*
X0004532Y0215780D01*
X0004567Y0215842D01*
X0004605Y0215902D01*
X0004646Y0215960D01*
X0004690Y0216015D01*
X0004738Y0216068D01*
X0004788Y0216118D01*
X0004840Y0216166D01*
X0004895Y0216211D01*
X0004953Y0216252D01*
X0005013Y0216291D01*
X0005074Y0216326D01*
X0005138Y0216358D01*
X0005203Y0216386D01*
X0005269Y0216411D01*
X0005802Y0216588D02*
X0009358Y0213743D01*
X0010780Y0215166D02*
X0010778Y0215237D01*
X0010772Y0215308D01*
X0010763Y0215378D01*
X0010749Y0215448D01*
X0010732Y0215517D01*
X0010712Y0215584D01*
X0010687Y0215651D01*
X0010659Y0215716D01*
X0010628Y0215780D01*
X0010593Y0215842D01*
X0010555Y0215902D01*
X0010514Y0215959D01*
X0010470Y0216015D01*
X0010422Y0216068D01*
X0010372Y0216118D01*
X0010320Y0216166D01*
X0010265Y0216211D01*
X0010207Y0216252D01*
X0010147Y0216291D01*
X0010086Y0216326D01*
X0010022Y0216358D01*
X0009957Y0216386D01*
X0009891Y0216411D01*
X0010780Y0215166D02*
X0010778Y0215095D01*
X0010772Y0215024D01*
X0010763Y0214954D01*
X0010749Y0214884D01*
X0010732Y0214815D01*
X0010712Y0214748D01*
X0010687Y0214681D01*
X0010659Y0214616D01*
X0010628Y0214552D01*
X0010593Y0214490D01*
X0010555Y0214430D01*
X0010514Y0214372D01*
X0010470Y0214317D01*
X0010422Y0214264D01*
X0010372Y0214214D01*
X0010320Y0214166D01*
X0010265Y0214121D01*
X0010207Y0214080D01*
X0010147Y0214041D01*
X0010086Y0214006D01*
X0010022Y0213974D01*
X0009957Y0213946D01*
X0009891Y0213921D01*
X0009891Y0207767D02*
X0009764Y0207707D01*
X0009635Y0207651D01*
X0009505Y0207598D01*
X0009373Y0207548D01*
X0009240Y0207502D01*
X0009106Y0207460D01*
X0008971Y0207421D01*
X0008834Y0207385D01*
X0008697Y0207354D01*
X0008559Y0207326D01*
X0008421Y0207301D01*
X0008282Y0207281D01*
X0008142Y0207264D01*
X0008002Y0207251D01*
X0007861Y0207242D01*
X0007721Y0207236D01*
X0007580Y0207234D01*
X0010424Y0204881D02*
X0010780Y0204881D01*
X0010780Y0204526D01*
X0010424Y0204526D01*
X0010424Y0204881D01*
X0007580Y0216943D02*
X0007439Y0216941D01*
X0007299Y0216935D01*
X0007158Y0216926D01*
X0007018Y0216913D01*
X0006878Y0216896D01*
X0006739Y0216876D01*
X0006601Y0216851D01*
X0006463Y0216823D01*
X0006326Y0216792D01*
X0006189Y0216756D01*
X0006054Y0216717D01*
X0005920Y0216675D01*
X0005787Y0216629D01*
X0005655Y0216579D01*
X0005525Y0216526D01*
X0005396Y0216470D01*
X0005269Y0216410D01*
X0004380Y0215166D02*
X0004382Y0215095D01*
X0004388Y0215024D01*
X0004397Y0214954D01*
X0004411Y0214884D01*
X0004428Y0214815D01*
X0004448Y0214748D01*
X0004473Y0214681D01*
X0004501Y0214616D01*
X0004532Y0214552D01*
X0004567Y0214490D01*
X0004605Y0214430D01*
X0004646Y0214372D01*
X0004690Y0214317D01*
X0004738Y0214264D01*
X0004788Y0214214D01*
X0004840Y0214166D01*
X0004895Y0214121D01*
X0004953Y0214080D01*
X0005013Y0214041D01*
X0005074Y0214006D01*
X0005138Y0213974D01*
X0005203Y0213946D01*
X0005269Y0213921D01*
X0005269Y0207767D02*
X0005396Y0207707D01*
X0005525Y0207651D01*
X0005655Y0207598D01*
X0005787Y0207548D01*
X0005920Y0207502D01*
X0006054Y0207460D01*
X0006189Y0207421D01*
X0006326Y0207385D01*
X0006463Y0207354D01*
X0006601Y0207326D01*
X0006739Y0207301D01*
X0006878Y0207281D01*
X0007018Y0207264D01*
X0007158Y0207251D01*
X0007299Y0207242D01*
X0007439Y0207236D01*
X0007580Y0207234D01*
X0007580Y0213388D02*
X0007721Y0213390D01*
X0007861Y0213396D01*
X0008002Y0213405D01*
X0008142Y0213418D01*
X0008282Y0213435D01*
X0008421Y0213455D01*
X0008559Y0213480D01*
X0008697Y0213508D01*
X0008834Y0213539D01*
X0008971Y0213575D01*
X0009106Y0213614D01*
X0009240Y0213656D01*
X0009373Y0213702D01*
X0009505Y0213752D01*
X0009635Y0213805D01*
X0009764Y0213861D01*
X0009891Y0213921D01*
X0238478Y0402712D02*
X0242033Y0402712D01*
X0240255Y0402712D02*
X0240255Y0409112D01*
X0238478Y0407690D01*
X0244632Y0402712D02*
X0248187Y0402712D01*
X0250786Y0402712D02*
X0254341Y0402712D01*
X0256694Y0402712D02*
X0257049Y0402712D01*
X0257049Y0403068D01*
X0256694Y0403068D01*
X0256694Y0402712D01*
X0262424Y0403601D02*
X0262484Y0403728D01*
X0262540Y0403857D01*
X0262593Y0403987D01*
X0262643Y0404119D01*
X0262689Y0404252D01*
X0262731Y0404386D01*
X0262770Y0404521D01*
X0262806Y0404658D01*
X0262837Y0404795D01*
X0262865Y0404933D01*
X0262890Y0405071D01*
X0262910Y0405210D01*
X0262927Y0405350D01*
X0262940Y0405490D01*
X0262949Y0405631D01*
X0262955Y0405771D01*
X0262957Y0405912D01*
X0268578Y0403601D02*
X0268638Y0403728D01*
X0268694Y0403857D01*
X0268747Y0403987D01*
X0268797Y0404119D01*
X0268843Y0404252D01*
X0268885Y0404386D01*
X0268924Y0404521D01*
X0268960Y0404658D01*
X0268991Y0404795D01*
X0269019Y0404933D01*
X0269044Y0405071D01*
X0269064Y0405210D01*
X0269081Y0405350D01*
X0269094Y0405490D01*
X0269103Y0405631D01*
X0269109Y0405771D01*
X0269111Y0405912D01*
X0265555Y0405912D02*
X0265557Y0406053D01*
X0265563Y0406193D01*
X0265572Y0406334D01*
X0265585Y0406474D01*
X0265602Y0406614D01*
X0265622Y0406753D01*
X0265647Y0406891D01*
X0265675Y0407029D01*
X0265706Y0407166D01*
X0265742Y0407303D01*
X0265781Y0407438D01*
X0265823Y0407572D01*
X0265869Y0407705D01*
X0265919Y0407837D01*
X0265972Y0407967D01*
X0266028Y0408096D01*
X0266088Y0408223D01*
X0266088Y0408224D02*
X0266113Y0408290D01*
X0266141Y0408355D01*
X0266173Y0408419D01*
X0266208Y0408480D01*
X0266247Y0408540D01*
X0266288Y0408598D01*
X0266333Y0408653D01*
X0266381Y0408705D01*
X0266431Y0408755D01*
X0266484Y0408803D01*
X0266539Y0408847D01*
X0266597Y0408888D01*
X0266657Y0408926D01*
X0266719Y0408961D01*
X0266783Y0408992D01*
X0266848Y0409020D01*
X0266915Y0409045D01*
X0266982Y0409065D01*
X0267051Y0409082D01*
X0267121Y0409096D01*
X0267191Y0409105D01*
X0267262Y0409111D01*
X0267333Y0409113D01*
X0267404Y0409111D01*
X0267475Y0409105D01*
X0267545Y0409096D01*
X0267615Y0409082D01*
X0267684Y0409065D01*
X0267751Y0409045D01*
X0267818Y0409020D01*
X0267883Y0408992D01*
X0267947Y0408961D01*
X0268009Y0408926D01*
X0268069Y0408888D01*
X0268127Y0408847D01*
X0268182Y0408803D01*
X0268235Y0408755D01*
X0268285Y0408705D01*
X0268333Y0408653D01*
X0268378Y0408598D01*
X0268419Y0408540D01*
X0268458Y0408480D01*
X0268493Y0408419D01*
X0268525Y0408355D01*
X0268553Y0408290D01*
X0268578Y0408224D01*
X0268755Y0407690D02*
X0265911Y0404135D01*
X0267333Y0402712D02*
X0267404Y0402714D01*
X0267475Y0402720D01*
X0267545Y0402729D01*
X0267615Y0402743D01*
X0267684Y0402760D01*
X0267751Y0402780D01*
X0267818Y0402805D01*
X0267883Y0402833D01*
X0267947Y0402864D01*
X0268009Y0402899D01*
X0268069Y0402937D01*
X0268126Y0402978D01*
X0268182Y0403022D01*
X0268235Y0403070D01*
X0268285Y0403120D01*
X0268333Y0403172D01*
X0268378Y0403227D01*
X0268419Y0403285D01*
X0268458Y0403345D01*
X0268493Y0403406D01*
X0268525Y0403470D01*
X0268553Y0403535D01*
X0268578Y0403601D01*
X0267333Y0402712D02*
X0267262Y0402714D01*
X0267191Y0402720D01*
X0267121Y0402729D01*
X0267051Y0402743D01*
X0266982Y0402760D01*
X0266915Y0402780D01*
X0266848Y0402805D01*
X0266783Y0402833D01*
X0266719Y0402864D01*
X0266657Y0402899D01*
X0266597Y0402937D01*
X0266539Y0402978D01*
X0266484Y0403022D01*
X0266431Y0403070D01*
X0266381Y0403120D01*
X0266333Y0403172D01*
X0266288Y0403227D01*
X0266247Y0403285D01*
X0266208Y0403345D01*
X0266173Y0403406D01*
X0266141Y0403470D01*
X0266113Y0403535D01*
X0266088Y0403601D01*
X0259935Y0403601D02*
X0259875Y0403728D01*
X0259819Y0403857D01*
X0259766Y0403987D01*
X0259716Y0404119D01*
X0259670Y0404252D01*
X0259628Y0404386D01*
X0259589Y0404521D01*
X0259553Y0404658D01*
X0259522Y0404795D01*
X0259494Y0404933D01*
X0259469Y0405071D01*
X0259449Y0405210D01*
X0259432Y0405350D01*
X0259419Y0405490D01*
X0259410Y0405631D01*
X0259404Y0405771D01*
X0259402Y0405912D01*
X0262957Y0405912D02*
X0262955Y0406053D01*
X0262949Y0406193D01*
X0262940Y0406334D01*
X0262927Y0406474D01*
X0262910Y0406614D01*
X0262890Y0406753D01*
X0262865Y0406891D01*
X0262837Y0407029D01*
X0262806Y0407166D01*
X0262770Y0407303D01*
X0262731Y0407438D01*
X0262689Y0407572D01*
X0262643Y0407705D01*
X0262593Y0407837D01*
X0262540Y0407967D01*
X0262484Y0408096D01*
X0262424Y0408223D01*
X0262601Y0407690D02*
X0259757Y0404135D01*
X0261179Y0402712D02*
X0261250Y0402714D01*
X0261321Y0402720D01*
X0261391Y0402729D01*
X0261461Y0402743D01*
X0261530Y0402760D01*
X0261597Y0402780D01*
X0261664Y0402805D01*
X0261729Y0402833D01*
X0261793Y0402864D01*
X0261855Y0402899D01*
X0261915Y0402937D01*
X0261972Y0402978D01*
X0262028Y0403022D01*
X0262081Y0403070D01*
X0262131Y0403120D01*
X0262179Y0403172D01*
X0262224Y0403227D01*
X0262265Y0403285D01*
X0262304Y0403345D01*
X0262339Y0403406D01*
X0262371Y0403470D01*
X0262399Y0403535D01*
X0262424Y0403601D01*
X0261179Y0402712D02*
X0261108Y0402714D01*
X0261037Y0402720D01*
X0260967Y0402729D01*
X0260897Y0402743D01*
X0260828Y0402760D01*
X0260761Y0402780D01*
X0260694Y0402805D01*
X0260629Y0402833D01*
X0260565Y0402864D01*
X0260503Y0402899D01*
X0260443Y0402937D01*
X0260385Y0402978D01*
X0260330Y0403022D01*
X0260277Y0403070D01*
X0260227Y0403120D01*
X0260179Y0403172D01*
X0260134Y0403227D01*
X0260093Y0403285D01*
X0260054Y0403345D01*
X0260019Y0403406D01*
X0259987Y0403470D01*
X0259959Y0403535D01*
X0259934Y0403601D01*
X0262424Y0408224D02*
X0262399Y0408290D01*
X0262371Y0408355D01*
X0262339Y0408419D01*
X0262304Y0408480D01*
X0262265Y0408540D01*
X0262224Y0408598D01*
X0262179Y0408653D01*
X0262131Y0408705D01*
X0262081Y0408755D01*
X0262028Y0408803D01*
X0261973Y0408847D01*
X0261915Y0408888D01*
X0261855Y0408926D01*
X0261793Y0408961D01*
X0261729Y0408992D01*
X0261664Y0409020D01*
X0261597Y0409045D01*
X0261530Y0409065D01*
X0261461Y0409082D01*
X0261391Y0409096D01*
X0261321Y0409105D01*
X0261250Y0409111D01*
X0261179Y0409113D01*
X0261108Y0409111D01*
X0261037Y0409105D01*
X0260967Y0409096D01*
X0260897Y0409082D01*
X0260828Y0409065D01*
X0260761Y0409045D01*
X0260694Y0409020D01*
X0260629Y0408992D01*
X0260565Y0408961D01*
X0260503Y0408926D01*
X0260443Y0408888D01*
X0260385Y0408847D01*
X0260330Y0408803D01*
X0260277Y0408755D01*
X0260227Y0408705D01*
X0260179Y0408653D01*
X0260134Y0408598D01*
X0260093Y0408540D01*
X0260054Y0408480D01*
X0260019Y0408419D01*
X0259987Y0408355D01*
X0259959Y0408290D01*
X0259934Y0408224D01*
X0268578Y0408223D02*
X0268638Y0408096D01*
X0268694Y0407967D01*
X0268747Y0407837D01*
X0268797Y0407705D01*
X0268843Y0407572D01*
X0268885Y0407438D01*
X0268924Y0407303D01*
X0268960Y0407166D01*
X0268991Y0407029D01*
X0269019Y0406891D01*
X0269044Y0406753D01*
X0269064Y0406614D01*
X0269081Y0406474D01*
X0269094Y0406334D01*
X0269103Y0406193D01*
X0269109Y0406053D01*
X0269111Y0405912D01*
X0265556Y0405912D02*
X0265558Y0405771D01*
X0265564Y0405631D01*
X0265573Y0405490D01*
X0265586Y0405350D01*
X0265603Y0405210D01*
X0265623Y0405071D01*
X0265648Y0404933D01*
X0265676Y0404795D01*
X0265707Y0404658D01*
X0265743Y0404521D01*
X0265782Y0404386D01*
X0265824Y0404252D01*
X0265870Y0404119D01*
X0265920Y0403987D01*
X0265973Y0403857D01*
X0266029Y0403728D01*
X0266089Y0403601D01*
X0259401Y0405912D02*
X0259403Y0406053D01*
X0259409Y0406193D01*
X0259418Y0406334D01*
X0259431Y0406474D01*
X0259448Y0406614D01*
X0259468Y0406753D01*
X0259493Y0406891D01*
X0259521Y0407029D01*
X0259552Y0407166D01*
X0259588Y0407303D01*
X0259627Y0407438D01*
X0259669Y0407572D01*
X0259715Y0407705D01*
X0259765Y0407837D01*
X0259818Y0407967D01*
X0259874Y0408096D01*
X0259934Y0408223D01*
X0253808Y0406268D02*
X0250786Y0402712D01*
X0247654Y0406268D02*
X0244632Y0402712D01*
X0244631Y0407690D02*
X0244660Y0407775D01*
X0244693Y0407858D01*
X0244730Y0407939D01*
X0244770Y0408019D01*
X0244813Y0408096D01*
X0244860Y0408172D01*
X0244910Y0408246D01*
X0244963Y0408318D01*
X0245019Y0408387D01*
X0245078Y0408454D01*
X0245140Y0408518D01*
X0245205Y0408579D01*
X0245272Y0408638D01*
X0245342Y0408693D01*
X0245414Y0408746D01*
X0245488Y0408795D01*
X0245565Y0408841D01*
X0245643Y0408883D01*
X0245723Y0408923D01*
X0245805Y0408958D01*
X0245888Y0408991D01*
X0245972Y0409019D01*
X0246058Y0409044D01*
X0246145Y0409065D01*
X0246232Y0409082D01*
X0246320Y0409096D01*
X0246409Y0409105D01*
X0246498Y0409111D01*
X0246587Y0409113D01*
X0246587Y0409112D02*
X0246666Y0409110D01*
X0246744Y0409104D01*
X0246822Y0409095D01*
X0246899Y0409081D01*
X0246976Y0409064D01*
X0247051Y0409043D01*
X0247126Y0409018D01*
X0247199Y0408990D01*
X0247271Y0408958D01*
X0247341Y0408923D01*
X0247410Y0408884D01*
X0247476Y0408842D01*
X0247540Y0408797D01*
X0247602Y0408749D01*
X0247661Y0408698D01*
X0247718Y0408643D01*
X0247773Y0408586D01*
X0247824Y0408527D01*
X0247872Y0408465D01*
X0247917Y0408401D01*
X0247959Y0408335D01*
X0247998Y0408266D01*
X0248033Y0408196D01*
X0248065Y0408124D01*
X0248093Y0408051D01*
X0248118Y0407976D01*
X0248139Y0407901D01*
X0248156Y0407824D01*
X0248170Y0407747D01*
X0248179Y0407669D01*
X0248185Y0407591D01*
X0248187Y0407512D01*
X0248188Y0407512D02*
X0248186Y0407430D01*
X0248180Y0407348D01*
X0248170Y0407267D01*
X0248157Y0407186D01*
X0248139Y0407106D01*
X0248118Y0407027D01*
X0248093Y0406949D01*
X0248065Y0406873D01*
X0248032Y0406797D01*
X0247997Y0406724D01*
X0247957Y0406652D01*
X0247915Y0406582D01*
X0247869Y0406514D01*
X0247820Y0406449D01*
X0247768Y0406386D01*
X0247712Y0406325D01*
X0247655Y0406267D01*
X0253809Y0406267D02*
X0253866Y0406325D01*
X0253922Y0406386D01*
X0253974Y0406449D01*
X0254023Y0406514D01*
X0254069Y0406582D01*
X0254111Y0406652D01*
X0254151Y0406724D01*
X0254186Y0406797D01*
X0254219Y0406873D01*
X0254247Y0406949D01*
X0254272Y0407027D01*
X0254293Y0407106D01*
X0254311Y0407186D01*
X0254324Y0407267D01*
X0254334Y0407348D01*
X0254340Y0407430D01*
X0254342Y0407512D01*
X0254341Y0407512D02*
X0254339Y0407591D01*
X0254333Y0407669D01*
X0254324Y0407747D01*
X0254310Y0407824D01*
X0254293Y0407901D01*
X0254272Y0407976D01*
X0254247Y0408051D01*
X0254219Y0408124D01*
X0254187Y0408196D01*
X0254152Y0408266D01*
X0254113Y0408335D01*
X0254071Y0408401D01*
X0254026Y0408465D01*
X0253978Y0408527D01*
X0253927Y0408586D01*
X0253872Y0408643D01*
X0253815Y0408698D01*
X0253756Y0408749D01*
X0253694Y0408797D01*
X0253630Y0408842D01*
X0253564Y0408884D01*
X0253495Y0408923D01*
X0253425Y0408958D01*
X0253353Y0408990D01*
X0253280Y0409018D01*
X0253205Y0409043D01*
X0253130Y0409064D01*
X0253053Y0409081D01*
X0252976Y0409095D01*
X0252898Y0409104D01*
X0252820Y0409110D01*
X0252741Y0409112D01*
X0252741Y0409113D02*
X0252652Y0409111D01*
X0252563Y0409105D01*
X0252474Y0409096D01*
X0252386Y0409082D01*
X0252299Y0409065D01*
X0252212Y0409044D01*
X0252126Y0409019D01*
X0252042Y0408991D01*
X0251959Y0408958D01*
X0251877Y0408923D01*
X0251797Y0408883D01*
X0251719Y0408841D01*
X0251642Y0408795D01*
X0251568Y0408746D01*
X0251496Y0408693D01*
X0251426Y0408638D01*
X0251359Y0408579D01*
X0251294Y0408518D01*
X0251232Y0408454D01*
X0251173Y0408387D01*
X0251117Y0408318D01*
X0251064Y0408246D01*
X0251014Y0408172D01*
X0250967Y0408096D01*
X0250924Y0408019D01*
X0250884Y0407939D01*
X0250847Y0407858D01*
X0250814Y0407775D01*
X0250785Y0407690D01*
X0486117Y0218556D02*
X0489673Y0215712D01*
X0491095Y0217134D02*
X0491093Y0217205D01*
X0491087Y0217276D01*
X0491078Y0217346D01*
X0491064Y0217416D01*
X0491047Y0217485D01*
X0491027Y0217552D01*
X0491002Y0217619D01*
X0490974Y0217684D01*
X0490943Y0217748D01*
X0490908Y0217810D01*
X0490870Y0217870D01*
X0490829Y0217927D01*
X0490785Y0217983D01*
X0490737Y0218036D01*
X0490687Y0218086D01*
X0490635Y0218134D01*
X0490580Y0218179D01*
X0490522Y0218220D01*
X0490462Y0218259D01*
X0490401Y0218294D01*
X0490337Y0218326D01*
X0490272Y0218354D01*
X0490206Y0218379D01*
X0491095Y0217134D02*
X0491093Y0217063D01*
X0491087Y0216992D01*
X0491078Y0216922D01*
X0491064Y0216852D01*
X0491047Y0216783D01*
X0491027Y0216716D01*
X0491002Y0216649D01*
X0490974Y0216584D01*
X0490943Y0216520D01*
X0490908Y0216458D01*
X0490870Y0216398D01*
X0490829Y0216340D01*
X0490785Y0216285D01*
X0490737Y0216232D01*
X0490687Y0216182D01*
X0490635Y0216134D01*
X0490580Y0216089D01*
X0490522Y0216048D01*
X0490462Y0216009D01*
X0490401Y0215974D01*
X0490337Y0215942D01*
X0490272Y0215914D01*
X0490206Y0215889D01*
X0490206Y0209735D02*
X0490079Y0209675D01*
X0489950Y0209619D01*
X0489820Y0209566D01*
X0489688Y0209516D01*
X0489555Y0209470D01*
X0489421Y0209428D01*
X0489286Y0209389D01*
X0489149Y0209353D01*
X0489012Y0209322D01*
X0488874Y0209294D01*
X0488736Y0209269D01*
X0488597Y0209249D01*
X0488457Y0209232D01*
X0488317Y0209219D01*
X0488176Y0209210D01*
X0488036Y0209204D01*
X0487895Y0209202D01*
X0487895Y0212758D02*
X0487754Y0212756D01*
X0487614Y0212750D01*
X0487473Y0212741D01*
X0487333Y0212728D01*
X0487193Y0212711D01*
X0487054Y0212691D01*
X0486916Y0212666D01*
X0486778Y0212638D01*
X0486641Y0212607D01*
X0486504Y0212571D01*
X0486369Y0212532D01*
X0486235Y0212490D01*
X0486102Y0212444D01*
X0485970Y0212394D01*
X0485840Y0212341D01*
X0485711Y0212285D01*
X0485584Y0212225D01*
X0486117Y0212402D02*
X0489673Y0209558D01*
X0491095Y0210980D02*
X0491093Y0211051D01*
X0491087Y0211122D01*
X0491078Y0211192D01*
X0491064Y0211262D01*
X0491047Y0211331D01*
X0491027Y0211398D01*
X0491002Y0211465D01*
X0490974Y0211530D01*
X0490943Y0211594D01*
X0490908Y0211656D01*
X0490870Y0211716D01*
X0490829Y0211773D01*
X0490785Y0211829D01*
X0490737Y0211882D01*
X0490687Y0211932D01*
X0490635Y0211980D01*
X0490580Y0212025D01*
X0490522Y0212066D01*
X0490462Y0212105D01*
X0490401Y0212140D01*
X0490337Y0212172D01*
X0490272Y0212200D01*
X0490206Y0212225D01*
X0491095Y0210980D02*
X0491093Y0210909D01*
X0491087Y0210838D01*
X0491078Y0210768D01*
X0491064Y0210698D01*
X0491047Y0210629D01*
X0491027Y0210562D01*
X0491002Y0210495D01*
X0490974Y0210430D01*
X0490943Y0210366D01*
X0490908Y0210304D01*
X0490870Y0210244D01*
X0490829Y0210186D01*
X0490785Y0210131D01*
X0490737Y0210078D01*
X0490687Y0210028D01*
X0490635Y0209980D01*
X0490580Y0209935D01*
X0490522Y0209894D01*
X0490462Y0209855D01*
X0490401Y0209820D01*
X0490337Y0209788D01*
X0490272Y0209760D01*
X0490206Y0209735D01*
X0490739Y0206850D02*
X0491095Y0206850D01*
X0491095Y0206494D01*
X0490739Y0206494D01*
X0490739Y0206850D01*
X0490206Y0212225D02*
X0490079Y0212285D01*
X0489950Y0212341D01*
X0489820Y0212394D01*
X0489688Y0212444D01*
X0489555Y0212490D01*
X0489421Y0212532D01*
X0489286Y0212571D01*
X0489149Y0212607D01*
X0489012Y0212638D01*
X0488874Y0212666D01*
X0488736Y0212691D01*
X0488597Y0212711D01*
X0488457Y0212728D01*
X0488317Y0212741D01*
X0488176Y0212750D01*
X0488036Y0212756D01*
X0487895Y0212758D01*
X0490206Y0218379D02*
X0490079Y0218439D01*
X0489950Y0218495D01*
X0489820Y0218548D01*
X0489688Y0218598D01*
X0489555Y0218644D01*
X0489421Y0218686D01*
X0489286Y0218725D01*
X0489149Y0218761D01*
X0489012Y0218792D01*
X0488874Y0218820D01*
X0488736Y0218845D01*
X0488597Y0218865D01*
X0488457Y0218882D01*
X0488317Y0218895D01*
X0488176Y0218904D01*
X0488036Y0218910D01*
X0487895Y0218912D01*
X0487895Y0215356D02*
X0487754Y0215358D01*
X0487614Y0215364D01*
X0487473Y0215373D01*
X0487333Y0215386D01*
X0487193Y0215403D01*
X0487054Y0215423D01*
X0486916Y0215448D01*
X0486778Y0215476D01*
X0486641Y0215507D01*
X0486504Y0215543D01*
X0486369Y0215582D01*
X0486235Y0215624D01*
X0486102Y0215670D01*
X0485970Y0215720D01*
X0485840Y0215773D01*
X0485711Y0215829D01*
X0485584Y0215889D01*
X0484695Y0217134D02*
X0484697Y0217205D01*
X0484703Y0217276D01*
X0484712Y0217346D01*
X0484726Y0217416D01*
X0484743Y0217485D01*
X0484763Y0217552D01*
X0484788Y0217619D01*
X0484816Y0217684D01*
X0484847Y0217748D01*
X0484882Y0217810D01*
X0484920Y0217870D01*
X0484961Y0217928D01*
X0485005Y0217983D01*
X0485053Y0218036D01*
X0485103Y0218086D01*
X0485155Y0218134D01*
X0485210Y0218179D01*
X0485268Y0218220D01*
X0485328Y0218259D01*
X0485389Y0218294D01*
X0485453Y0218326D01*
X0485518Y0218354D01*
X0485584Y0218379D01*
X0484694Y0217134D02*
X0484696Y0217063D01*
X0484702Y0216992D01*
X0484711Y0216922D01*
X0484725Y0216852D01*
X0484742Y0216783D01*
X0484762Y0216716D01*
X0484787Y0216649D01*
X0484815Y0216584D01*
X0484846Y0216520D01*
X0484881Y0216458D01*
X0484919Y0216398D01*
X0484960Y0216340D01*
X0485004Y0216285D01*
X0485052Y0216232D01*
X0485102Y0216182D01*
X0485154Y0216134D01*
X0485209Y0216089D01*
X0485267Y0216048D01*
X0485327Y0216009D01*
X0485388Y0215974D01*
X0485452Y0215942D01*
X0485517Y0215914D01*
X0485583Y0215889D01*
X0485584Y0209735D02*
X0485711Y0209675D01*
X0485840Y0209619D01*
X0485970Y0209566D01*
X0486102Y0209516D01*
X0486235Y0209470D01*
X0486369Y0209428D01*
X0486504Y0209389D01*
X0486641Y0209353D01*
X0486778Y0209322D01*
X0486916Y0209294D01*
X0487054Y0209269D01*
X0487193Y0209249D01*
X0487333Y0209232D01*
X0487473Y0209219D01*
X0487614Y0209210D01*
X0487754Y0209204D01*
X0487895Y0209202D01*
X0484695Y0210980D02*
X0484697Y0211051D01*
X0484703Y0211122D01*
X0484712Y0211192D01*
X0484726Y0211262D01*
X0484743Y0211331D01*
X0484763Y0211398D01*
X0484788Y0211465D01*
X0484816Y0211530D01*
X0484847Y0211594D01*
X0484882Y0211656D01*
X0484920Y0211716D01*
X0484961Y0211774D01*
X0485005Y0211829D01*
X0485053Y0211882D01*
X0485103Y0211932D01*
X0485155Y0211980D01*
X0485210Y0212025D01*
X0485268Y0212066D01*
X0485328Y0212105D01*
X0485389Y0212140D01*
X0485453Y0212172D01*
X0485518Y0212200D01*
X0485584Y0212225D01*
X0484694Y0210980D02*
X0484696Y0210909D01*
X0484702Y0210838D01*
X0484711Y0210768D01*
X0484725Y0210698D01*
X0484742Y0210629D01*
X0484762Y0210562D01*
X0484787Y0210495D01*
X0484815Y0210430D01*
X0484846Y0210366D01*
X0484881Y0210304D01*
X0484919Y0210244D01*
X0484960Y0210186D01*
X0485004Y0210131D01*
X0485052Y0210078D01*
X0485102Y0210028D01*
X0485154Y0209980D01*
X0485209Y0209935D01*
X0485267Y0209894D01*
X0485327Y0209855D01*
X0485388Y0209820D01*
X0485452Y0209788D01*
X0485517Y0209760D01*
X0485583Y0209735D01*
X0487895Y0200587D02*
X0488036Y0200589D01*
X0488176Y0200595D01*
X0488317Y0200604D01*
X0488457Y0200617D01*
X0488597Y0200634D01*
X0488736Y0200654D01*
X0488874Y0200679D01*
X0489012Y0200707D01*
X0489149Y0200738D01*
X0489286Y0200774D01*
X0489421Y0200813D01*
X0489555Y0200855D01*
X0489688Y0200901D01*
X0489820Y0200951D01*
X0489950Y0201004D01*
X0490079Y0201060D01*
X0490206Y0201120D01*
X0489673Y0200942D02*
X0486117Y0203787D01*
X0485584Y0203609D02*
X0485518Y0203584D01*
X0485453Y0203556D01*
X0485389Y0203524D01*
X0485328Y0203489D01*
X0485268Y0203450D01*
X0485210Y0203409D01*
X0485155Y0203364D01*
X0485103Y0203316D01*
X0485053Y0203266D01*
X0485005Y0203213D01*
X0484961Y0203158D01*
X0484920Y0203100D01*
X0484882Y0203040D01*
X0484847Y0202978D01*
X0484816Y0202914D01*
X0484788Y0202849D01*
X0484763Y0202782D01*
X0484743Y0202715D01*
X0484726Y0202646D01*
X0484712Y0202576D01*
X0484703Y0202506D01*
X0484697Y0202435D01*
X0484695Y0202364D01*
X0484694Y0202364D02*
X0484696Y0202293D01*
X0484702Y0202222D01*
X0484711Y0202152D01*
X0484725Y0202082D01*
X0484742Y0202013D01*
X0484762Y0201946D01*
X0484787Y0201879D01*
X0484815Y0201814D01*
X0484846Y0201750D01*
X0484881Y0201688D01*
X0484919Y0201628D01*
X0484960Y0201570D01*
X0485004Y0201515D01*
X0485052Y0201462D01*
X0485102Y0201412D01*
X0485154Y0201364D01*
X0485209Y0201319D01*
X0485267Y0201278D01*
X0485327Y0201239D01*
X0485388Y0201204D01*
X0485452Y0201172D01*
X0485517Y0201144D01*
X0485583Y0201119D01*
X0487895Y0194433D02*
X0488036Y0194435D01*
X0488176Y0194441D01*
X0488317Y0194450D01*
X0488457Y0194463D01*
X0488597Y0194480D01*
X0488736Y0194500D01*
X0488874Y0194525D01*
X0489012Y0194553D01*
X0489149Y0194584D01*
X0489286Y0194620D01*
X0489421Y0194659D01*
X0489555Y0194701D01*
X0489688Y0194747D01*
X0489820Y0194797D01*
X0489950Y0194850D01*
X0490079Y0194906D01*
X0490206Y0194966D01*
X0489673Y0194788D02*
X0486117Y0197633D01*
X0485584Y0197455D02*
X0485518Y0197430D01*
X0485453Y0197402D01*
X0485389Y0197370D01*
X0485328Y0197335D01*
X0485268Y0197296D01*
X0485210Y0197255D01*
X0485155Y0197210D01*
X0485103Y0197162D01*
X0485053Y0197112D01*
X0485005Y0197059D01*
X0484961Y0197004D01*
X0484920Y0196946D01*
X0484882Y0196886D01*
X0484847Y0196824D01*
X0484816Y0196760D01*
X0484788Y0196695D01*
X0484763Y0196628D01*
X0484743Y0196561D01*
X0484726Y0196492D01*
X0484712Y0196422D01*
X0484703Y0196352D01*
X0484697Y0196281D01*
X0484695Y0196210D01*
X0484694Y0196210D02*
X0484696Y0196139D01*
X0484702Y0196068D01*
X0484711Y0195998D01*
X0484725Y0195928D01*
X0484742Y0195859D01*
X0484762Y0195792D01*
X0484787Y0195725D01*
X0484815Y0195660D01*
X0484846Y0195596D01*
X0484881Y0195534D01*
X0484919Y0195474D01*
X0484960Y0195416D01*
X0485004Y0195361D01*
X0485052Y0195308D01*
X0485102Y0195258D01*
X0485154Y0195210D01*
X0485209Y0195165D01*
X0485267Y0195124D01*
X0485327Y0195085D01*
X0485388Y0195050D01*
X0485452Y0195018D01*
X0485517Y0194990D01*
X0485583Y0194965D01*
X0485584Y0197455D02*
X0485711Y0197515D01*
X0485840Y0197571D01*
X0485970Y0197624D01*
X0486102Y0197674D01*
X0486235Y0197720D01*
X0486369Y0197762D01*
X0486504Y0197801D01*
X0486641Y0197837D01*
X0486778Y0197868D01*
X0486916Y0197896D01*
X0487054Y0197921D01*
X0487193Y0197941D01*
X0487333Y0197958D01*
X0487473Y0197971D01*
X0487614Y0197980D01*
X0487754Y0197986D01*
X0487895Y0197988D01*
X0490206Y0203609D02*
X0490079Y0203669D01*
X0489950Y0203725D01*
X0489820Y0203778D01*
X0489688Y0203828D01*
X0489555Y0203874D01*
X0489421Y0203916D01*
X0489286Y0203955D01*
X0489149Y0203991D01*
X0489012Y0204022D01*
X0488874Y0204050D01*
X0488736Y0204075D01*
X0488597Y0204095D01*
X0488457Y0204112D01*
X0488317Y0204125D01*
X0488176Y0204134D01*
X0488036Y0204140D01*
X0487895Y0204142D01*
X0487895Y0200587D02*
X0487754Y0200589D01*
X0487614Y0200595D01*
X0487473Y0200604D01*
X0487333Y0200617D01*
X0487193Y0200634D01*
X0487054Y0200654D01*
X0486916Y0200679D01*
X0486778Y0200707D01*
X0486641Y0200738D01*
X0486504Y0200774D01*
X0486369Y0200813D01*
X0486235Y0200855D01*
X0486102Y0200901D01*
X0485970Y0200951D01*
X0485840Y0201004D01*
X0485711Y0201060D01*
X0485584Y0201120D01*
X0485584Y0194966D02*
X0485711Y0194906D01*
X0485840Y0194850D01*
X0485970Y0194797D01*
X0486102Y0194747D01*
X0486235Y0194701D01*
X0486369Y0194659D01*
X0486504Y0194620D01*
X0486641Y0194584D01*
X0486778Y0194553D01*
X0486916Y0194525D01*
X0487054Y0194500D01*
X0487193Y0194480D01*
X0487333Y0194463D01*
X0487473Y0194450D01*
X0487614Y0194441D01*
X0487754Y0194435D01*
X0487895Y0194433D01*
X0487895Y0197988D02*
X0488036Y0197986D01*
X0488176Y0197980D01*
X0488317Y0197971D01*
X0488457Y0197958D01*
X0488597Y0197941D01*
X0488736Y0197921D01*
X0488874Y0197896D01*
X0489012Y0197868D01*
X0489149Y0197837D01*
X0489286Y0197801D01*
X0489421Y0197762D01*
X0489555Y0197720D01*
X0489688Y0197674D01*
X0489820Y0197624D01*
X0489950Y0197571D01*
X0490079Y0197515D01*
X0490206Y0197455D01*
X0490272Y0197430D01*
X0490337Y0197402D01*
X0490401Y0197370D01*
X0490462Y0197335D01*
X0490522Y0197296D01*
X0490580Y0197255D01*
X0490635Y0197210D01*
X0490687Y0197162D01*
X0490737Y0197112D01*
X0490785Y0197059D01*
X0490829Y0197003D01*
X0490870Y0196946D01*
X0490908Y0196886D01*
X0490943Y0196824D01*
X0490974Y0196760D01*
X0491002Y0196695D01*
X0491027Y0196628D01*
X0491047Y0196561D01*
X0491064Y0196492D01*
X0491078Y0196422D01*
X0491087Y0196352D01*
X0491093Y0196281D01*
X0491095Y0196210D01*
X0491093Y0196139D01*
X0491087Y0196068D01*
X0491078Y0195998D01*
X0491064Y0195928D01*
X0491047Y0195859D01*
X0491027Y0195792D01*
X0491002Y0195725D01*
X0490974Y0195660D01*
X0490943Y0195596D01*
X0490908Y0195534D01*
X0490870Y0195474D01*
X0490829Y0195416D01*
X0490785Y0195361D01*
X0490737Y0195308D01*
X0490687Y0195258D01*
X0490635Y0195210D01*
X0490580Y0195165D01*
X0490522Y0195124D01*
X0490462Y0195085D01*
X0490401Y0195050D01*
X0490337Y0195018D01*
X0490272Y0194990D01*
X0490206Y0194965D01*
X0491095Y0191834D02*
X0491095Y0188279D01*
X0491095Y0190056D02*
X0484695Y0190056D01*
X0486117Y0188279D01*
X0485584Y0203609D02*
X0485711Y0203669D01*
X0485840Y0203725D01*
X0485970Y0203778D01*
X0486102Y0203828D01*
X0486235Y0203874D01*
X0486369Y0203916D01*
X0486504Y0203955D01*
X0486641Y0203991D01*
X0486778Y0204022D01*
X0486916Y0204050D01*
X0487054Y0204075D01*
X0487193Y0204095D01*
X0487333Y0204112D01*
X0487473Y0204125D01*
X0487614Y0204134D01*
X0487754Y0204140D01*
X0487895Y0204142D01*
X0490206Y0203609D02*
X0490272Y0203584D01*
X0490337Y0203556D01*
X0490401Y0203524D01*
X0490462Y0203489D01*
X0490522Y0203450D01*
X0490580Y0203409D01*
X0490635Y0203364D01*
X0490687Y0203316D01*
X0490737Y0203266D01*
X0490785Y0203213D01*
X0490829Y0203157D01*
X0490870Y0203100D01*
X0490908Y0203040D01*
X0490943Y0202978D01*
X0490974Y0202914D01*
X0491002Y0202849D01*
X0491027Y0202782D01*
X0491047Y0202715D01*
X0491064Y0202646D01*
X0491078Y0202576D01*
X0491087Y0202506D01*
X0491093Y0202435D01*
X0491095Y0202364D01*
X0491093Y0202293D01*
X0491087Y0202222D01*
X0491078Y0202152D01*
X0491064Y0202082D01*
X0491047Y0202013D01*
X0491027Y0201946D01*
X0491002Y0201879D01*
X0490974Y0201814D01*
X0490943Y0201750D01*
X0490908Y0201688D01*
X0490870Y0201628D01*
X0490829Y0201570D01*
X0490785Y0201515D01*
X0490737Y0201462D01*
X0490687Y0201412D01*
X0490635Y0201364D01*
X0490580Y0201319D01*
X0490522Y0201278D01*
X0490462Y0201239D01*
X0490401Y0201204D01*
X0490337Y0201172D01*
X0490272Y0201144D01*
X0490206Y0201119D01*
X0485584Y0218379D02*
X0485711Y0218439D01*
X0485840Y0218495D01*
X0485970Y0218548D01*
X0486102Y0218598D01*
X0486235Y0218644D01*
X0486369Y0218686D01*
X0486504Y0218725D01*
X0486641Y0218761D01*
X0486778Y0218792D01*
X0486916Y0218820D01*
X0487054Y0218845D01*
X0487193Y0218865D01*
X0487333Y0218882D01*
X0487473Y0218895D01*
X0487614Y0218904D01*
X0487754Y0218910D01*
X0487895Y0218912D01*
X0487895Y0215356D02*
X0488036Y0215358D01*
X0488176Y0215364D01*
X0488317Y0215373D01*
X0488457Y0215386D01*
X0488597Y0215403D01*
X0488736Y0215423D01*
X0488874Y0215448D01*
X0489012Y0215476D01*
X0489149Y0215507D01*
X0489286Y0215543D01*
X0489421Y0215582D01*
X0489555Y0215624D01*
X0489688Y0215670D01*
X0489820Y0215720D01*
X0489950Y0215773D01*
X0490079Y0215829D01*
X0490206Y0215889D01*
X0265556Y0008275D02*
X0265558Y0008134D01*
X0265564Y0007994D01*
X0265573Y0007853D01*
X0265586Y0007713D01*
X0265603Y0007573D01*
X0265623Y0007434D01*
X0265648Y0007296D01*
X0265676Y0007158D01*
X0265707Y0007021D01*
X0265743Y0006884D01*
X0265782Y0006749D01*
X0265824Y0006615D01*
X0265870Y0006482D01*
X0265920Y0006350D01*
X0265973Y0006220D01*
X0266029Y0006091D01*
X0266089Y0005964D01*
X0265911Y0006497D02*
X0268755Y0010052D01*
X0268578Y0010586D02*
X0268553Y0010652D01*
X0268525Y0010717D01*
X0268493Y0010781D01*
X0268458Y0010842D01*
X0268419Y0010902D01*
X0268378Y0010960D01*
X0268333Y0011015D01*
X0268285Y0011067D01*
X0268235Y0011117D01*
X0268182Y0011165D01*
X0268127Y0011209D01*
X0268069Y0011250D01*
X0268009Y0011288D01*
X0267947Y0011323D01*
X0267883Y0011354D01*
X0267818Y0011382D01*
X0267751Y0011407D01*
X0267684Y0011427D01*
X0267615Y0011444D01*
X0267545Y0011458D01*
X0267475Y0011467D01*
X0267404Y0011473D01*
X0267333Y0011475D01*
X0267262Y0011473D01*
X0267191Y0011467D01*
X0267121Y0011458D01*
X0267051Y0011444D01*
X0266982Y0011427D01*
X0266915Y0011407D01*
X0266848Y0011382D01*
X0266783Y0011354D01*
X0266719Y0011323D01*
X0266657Y0011288D01*
X0266597Y0011250D01*
X0266539Y0011209D01*
X0266484Y0011165D01*
X0266431Y0011117D01*
X0266381Y0011067D01*
X0266333Y0011015D01*
X0266288Y0010960D01*
X0266247Y0010902D01*
X0266208Y0010842D01*
X0266173Y0010781D01*
X0266141Y0010717D01*
X0266113Y0010652D01*
X0266088Y0010586D01*
X0259402Y0008275D02*
X0259404Y0008134D01*
X0259410Y0007994D01*
X0259419Y0007853D01*
X0259432Y0007713D01*
X0259449Y0007573D01*
X0259469Y0007434D01*
X0259494Y0007296D01*
X0259522Y0007158D01*
X0259553Y0007021D01*
X0259589Y0006884D01*
X0259628Y0006749D01*
X0259670Y0006615D01*
X0259716Y0006482D01*
X0259766Y0006350D01*
X0259819Y0006220D01*
X0259875Y0006091D01*
X0259935Y0005964D01*
X0259757Y0006497D02*
X0262601Y0010052D01*
X0262424Y0010586D02*
X0262399Y0010652D01*
X0262371Y0010717D01*
X0262339Y0010781D01*
X0262304Y0010842D01*
X0262265Y0010902D01*
X0262224Y0010960D01*
X0262179Y0011015D01*
X0262131Y0011067D01*
X0262081Y0011117D01*
X0262028Y0011165D01*
X0261973Y0011209D01*
X0261915Y0011250D01*
X0261855Y0011288D01*
X0261793Y0011323D01*
X0261729Y0011354D01*
X0261664Y0011382D01*
X0261597Y0011407D01*
X0261530Y0011427D01*
X0261461Y0011444D01*
X0261391Y0011458D01*
X0261321Y0011467D01*
X0261250Y0011473D01*
X0261179Y0011475D01*
X0261108Y0011473D01*
X0261037Y0011467D01*
X0260967Y0011458D01*
X0260897Y0011444D01*
X0260828Y0011427D01*
X0260761Y0011407D01*
X0260694Y0011382D01*
X0260629Y0011354D01*
X0260565Y0011323D01*
X0260503Y0011288D01*
X0260443Y0011250D01*
X0260385Y0011209D01*
X0260330Y0011165D01*
X0260277Y0011117D01*
X0260227Y0011067D01*
X0260179Y0011015D01*
X0260134Y0010960D01*
X0260093Y0010902D01*
X0260054Y0010842D01*
X0260019Y0010781D01*
X0259987Y0010717D01*
X0259959Y0010652D01*
X0259934Y0010586D01*
X0262424Y0010586D02*
X0262484Y0010459D01*
X0262540Y0010330D01*
X0262593Y0010200D01*
X0262643Y0010068D01*
X0262689Y0009935D01*
X0262731Y0009801D01*
X0262770Y0009666D01*
X0262806Y0009529D01*
X0262837Y0009392D01*
X0262865Y0009254D01*
X0262890Y0009116D01*
X0262910Y0008977D01*
X0262927Y0008837D01*
X0262940Y0008697D01*
X0262949Y0008556D01*
X0262955Y0008416D01*
X0262957Y0008275D01*
X0268578Y0005964D02*
X0268638Y0006091D01*
X0268694Y0006220D01*
X0268747Y0006350D01*
X0268797Y0006482D01*
X0268843Y0006615D01*
X0268885Y0006749D01*
X0268924Y0006884D01*
X0268960Y0007021D01*
X0268991Y0007158D01*
X0269019Y0007296D01*
X0269044Y0007434D01*
X0269064Y0007573D01*
X0269081Y0007713D01*
X0269094Y0007853D01*
X0269103Y0007994D01*
X0269109Y0008134D01*
X0269111Y0008275D01*
X0265555Y0008275D02*
X0265557Y0008416D01*
X0265563Y0008556D01*
X0265572Y0008697D01*
X0265585Y0008837D01*
X0265602Y0008977D01*
X0265622Y0009116D01*
X0265647Y0009254D01*
X0265675Y0009392D01*
X0265706Y0009529D01*
X0265742Y0009666D01*
X0265781Y0009801D01*
X0265823Y0009935D01*
X0265869Y0010068D01*
X0265919Y0010200D01*
X0265972Y0010330D01*
X0266028Y0010459D01*
X0266088Y0010586D01*
X0259934Y0010586D02*
X0259874Y0010459D01*
X0259818Y0010330D01*
X0259765Y0010200D01*
X0259715Y0010068D01*
X0259669Y0009935D01*
X0259627Y0009801D01*
X0259588Y0009666D01*
X0259552Y0009529D01*
X0259521Y0009392D01*
X0259493Y0009254D01*
X0259468Y0009116D01*
X0259448Y0008977D01*
X0259431Y0008837D01*
X0259418Y0008697D01*
X0259409Y0008556D01*
X0259403Y0008416D01*
X0259401Y0008275D01*
X0262957Y0008275D02*
X0262955Y0008134D01*
X0262949Y0007994D01*
X0262940Y0007853D01*
X0262927Y0007713D01*
X0262910Y0007573D01*
X0262890Y0007434D01*
X0262865Y0007296D01*
X0262837Y0007158D01*
X0262806Y0007021D01*
X0262770Y0006884D01*
X0262731Y0006749D01*
X0262689Y0006615D01*
X0262643Y0006482D01*
X0262593Y0006350D01*
X0262540Y0006220D01*
X0262484Y0006091D01*
X0262424Y0005964D01*
X0261179Y0005074D02*
X0261108Y0005076D01*
X0261037Y0005082D01*
X0260967Y0005091D01*
X0260897Y0005105D01*
X0260828Y0005122D01*
X0260761Y0005142D01*
X0260694Y0005167D01*
X0260629Y0005195D01*
X0260565Y0005226D01*
X0260503Y0005261D01*
X0260443Y0005299D01*
X0260385Y0005340D01*
X0260330Y0005384D01*
X0260277Y0005432D01*
X0260227Y0005482D01*
X0260179Y0005534D01*
X0260134Y0005589D01*
X0260093Y0005647D01*
X0260054Y0005707D01*
X0260019Y0005768D01*
X0259987Y0005832D01*
X0259959Y0005897D01*
X0259934Y0005963D01*
X0261179Y0005074D02*
X0261250Y0005076D01*
X0261321Y0005082D01*
X0261391Y0005091D01*
X0261461Y0005105D01*
X0261530Y0005122D01*
X0261597Y0005142D01*
X0261664Y0005167D01*
X0261729Y0005195D01*
X0261793Y0005226D01*
X0261855Y0005261D01*
X0261915Y0005299D01*
X0261972Y0005340D01*
X0262028Y0005384D01*
X0262081Y0005432D01*
X0262131Y0005482D01*
X0262179Y0005534D01*
X0262224Y0005589D01*
X0262265Y0005647D01*
X0262304Y0005707D01*
X0262339Y0005768D01*
X0262371Y0005832D01*
X0262399Y0005897D01*
X0262424Y0005963D01*
X0269111Y0008275D02*
X0269109Y0008416D01*
X0269103Y0008556D01*
X0269094Y0008697D01*
X0269081Y0008837D01*
X0269064Y0008977D01*
X0269044Y0009116D01*
X0269019Y0009254D01*
X0268991Y0009392D01*
X0268960Y0009529D01*
X0268924Y0009666D01*
X0268885Y0009801D01*
X0268843Y0009935D01*
X0268797Y0010068D01*
X0268747Y0010200D01*
X0268694Y0010330D01*
X0268638Y0010459D01*
X0268578Y0010586D01*
X0268578Y0005963D02*
X0268553Y0005897D01*
X0268525Y0005832D01*
X0268493Y0005768D01*
X0268458Y0005707D01*
X0268419Y0005647D01*
X0268378Y0005589D01*
X0268333Y0005534D01*
X0268285Y0005482D01*
X0268235Y0005432D01*
X0268182Y0005384D01*
X0268126Y0005340D01*
X0268069Y0005299D01*
X0268009Y0005261D01*
X0267947Y0005226D01*
X0267883Y0005195D01*
X0267818Y0005167D01*
X0267751Y0005142D01*
X0267684Y0005122D01*
X0267615Y0005105D01*
X0267545Y0005091D01*
X0267475Y0005082D01*
X0267404Y0005076D01*
X0267333Y0005074D01*
X0267262Y0005076D01*
X0267191Y0005082D01*
X0267121Y0005091D01*
X0267051Y0005105D01*
X0266982Y0005122D01*
X0266915Y0005142D01*
X0266848Y0005167D01*
X0266783Y0005195D01*
X0266719Y0005226D01*
X0266657Y0005261D01*
X0266597Y0005299D01*
X0266539Y0005340D01*
X0266484Y0005384D01*
X0266431Y0005432D01*
X0266381Y0005482D01*
X0266333Y0005534D01*
X0266288Y0005589D01*
X0266247Y0005647D01*
X0266208Y0005707D01*
X0266173Y0005768D01*
X0266141Y0005832D01*
X0266113Y0005897D01*
X0266088Y0005963D01*
X0257049Y0005430D02*
X0257049Y0005075D01*
X0256694Y0005075D01*
X0256694Y0005430D01*
X0257049Y0005430D01*
X0254341Y0005075D02*
X0250786Y0005075D01*
X0253808Y0008630D01*
X0252741Y0011475D02*
X0252652Y0011473D01*
X0252563Y0011467D01*
X0252474Y0011458D01*
X0252386Y0011444D01*
X0252299Y0011427D01*
X0252212Y0011406D01*
X0252126Y0011381D01*
X0252042Y0011353D01*
X0251959Y0011320D01*
X0251877Y0011285D01*
X0251797Y0011245D01*
X0251719Y0011203D01*
X0251642Y0011157D01*
X0251568Y0011108D01*
X0251496Y0011055D01*
X0251426Y0011000D01*
X0251359Y0010941D01*
X0251294Y0010880D01*
X0251232Y0010816D01*
X0251173Y0010749D01*
X0251117Y0010680D01*
X0251064Y0010608D01*
X0251014Y0010534D01*
X0250967Y0010458D01*
X0250924Y0010381D01*
X0250884Y0010301D01*
X0250847Y0010220D01*
X0250814Y0010137D01*
X0250785Y0010052D01*
X0253809Y0008630D02*
X0253866Y0008688D01*
X0253922Y0008749D01*
X0253974Y0008812D01*
X0254023Y0008877D01*
X0254069Y0008945D01*
X0254111Y0009015D01*
X0254151Y0009087D01*
X0254186Y0009160D01*
X0254219Y0009236D01*
X0254247Y0009312D01*
X0254272Y0009390D01*
X0254293Y0009469D01*
X0254311Y0009549D01*
X0254324Y0009630D01*
X0254334Y0009711D01*
X0254340Y0009793D01*
X0254342Y0009875D01*
X0254341Y0009875D02*
X0254339Y0009954D01*
X0254333Y0010032D01*
X0254324Y0010110D01*
X0254310Y0010187D01*
X0254293Y0010264D01*
X0254272Y0010339D01*
X0254247Y0010414D01*
X0254219Y0010487D01*
X0254187Y0010559D01*
X0254152Y0010629D01*
X0254113Y0010698D01*
X0254071Y0010764D01*
X0254026Y0010828D01*
X0253978Y0010890D01*
X0253927Y0010949D01*
X0253872Y0011006D01*
X0253815Y0011061D01*
X0253756Y0011112D01*
X0253694Y0011160D01*
X0253630Y0011205D01*
X0253564Y0011247D01*
X0253495Y0011286D01*
X0253425Y0011321D01*
X0253353Y0011353D01*
X0253280Y0011381D01*
X0253205Y0011406D01*
X0253130Y0011427D01*
X0253053Y0011444D01*
X0252976Y0011458D01*
X0252898Y0011467D01*
X0252820Y0011473D01*
X0252741Y0011475D01*
X0247654Y0008630D02*
X0244632Y0005075D01*
X0248187Y0005075D01*
X0244631Y0010052D02*
X0244660Y0010137D01*
X0244693Y0010220D01*
X0244730Y0010301D01*
X0244770Y0010381D01*
X0244813Y0010458D01*
X0244860Y0010534D01*
X0244910Y0010608D01*
X0244963Y0010680D01*
X0245019Y0010749D01*
X0245078Y0010816D01*
X0245140Y0010880D01*
X0245205Y0010941D01*
X0245272Y0011000D01*
X0245342Y0011055D01*
X0245414Y0011108D01*
X0245488Y0011157D01*
X0245565Y0011203D01*
X0245643Y0011245D01*
X0245723Y0011285D01*
X0245805Y0011320D01*
X0245888Y0011353D01*
X0245972Y0011381D01*
X0246058Y0011406D01*
X0246145Y0011427D01*
X0246232Y0011444D01*
X0246320Y0011458D01*
X0246409Y0011467D01*
X0246498Y0011473D01*
X0246587Y0011475D01*
X0246666Y0011473D01*
X0246744Y0011467D01*
X0246822Y0011458D01*
X0246899Y0011444D01*
X0246976Y0011427D01*
X0247051Y0011406D01*
X0247126Y0011381D01*
X0247199Y0011353D01*
X0247271Y0011321D01*
X0247341Y0011286D01*
X0247410Y0011247D01*
X0247476Y0011205D01*
X0247540Y0011160D01*
X0247602Y0011112D01*
X0247661Y0011061D01*
X0247718Y0011006D01*
X0247773Y0010949D01*
X0247824Y0010890D01*
X0247872Y0010828D01*
X0247917Y0010764D01*
X0247959Y0010698D01*
X0247998Y0010629D01*
X0248033Y0010559D01*
X0248065Y0010487D01*
X0248093Y0010414D01*
X0248118Y0010339D01*
X0248139Y0010264D01*
X0248156Y0010187D01*
X0248170Y0010110D01*
X0248179Y0010032D01*
X0248185Y0009954D01*
X0248187Y0009875D01*
X0248188Y0009875D02*
X0248186Y0009793D01*
X0248180Y0009711D01*
X0248170Y0009630D01*
X0248157Y0009549D01*
X0248139Y0009469D01*
X0248118Y0009390D01*
X0248093Y0009312D01*
X0248065Y0009236D01*
X0248032Y0009160D01*
X0247997Y0009087D01*
X0247957Y0009015D01*
X0247915Y0008945D01*
X0247869Y0008877D01*
X0247820Y0008812D01*
X0247768Y0008749D01*
X0247712Y0008688D01*
X0247655Y0008630D01*
X0242033Y0005075D02*
X0238478Y0005075D01*
X0240255Y0005075D02*
X0240255Y0011475D01*
X0238478Y0010052D01*
D12*
X0405480Y0053694D02*
X0405482Y0053842D01*
X0405488Y0053990D01*
X0405498Y0054138D01*
X0405512Y0054286D01*
X0405530Y0054433D01*
X0405552Y0054580D01*
X0405578Y0054726D01*
X0405607Y0054871D01*
X0405641Y0055016D01*
X0405679Y0055159D01*
X0405720Y0055302D01*
X0405765Y0055443D01*
X0405815Y0055583D01*
X0405867Y0055721D01*
X0405924Y0055859D01*
X0405984Y0055994D01*
X0406048Y0056128D01*
X0406115Y0056260D01*
X0406186Y0056390D01*
X0406261Y0056519D01*
X0406339Y0056645D01*
X0406420Y0056769D01*
X0406504Y0056891D01*
X0406592Y0057010D01*
X0406683Y0057127D01*
X0406777Y0057242D01*
X0406875Y0057354D01*
X0406975Y0057463D01*
X0407078Y0057570D01*
X0407184Y0057674D01*
X0407292Y0057775D01*
X0407404Y0057873D01*
X0407518Y0057968D01*
X0407634Y0058059D01*
X0407753Y0058148D01*
X0407874Y0058233D01*
X0407998Y0058315D01*
X0408124Y0058394D01*
X0408251Y0058469D01*
X0408381Y0058541D01*
X0408513Y0058610D01*
X0408646Y0058674D01*
X0408781Y0058735D01*
X0408918Y0058793D01*
X0409056Y0058847D01*
X0409196Y0058897D01*
X0409337Y0058943D01*
X0409479Y0058985D01*
X0409622Y0059024D01*
X0409766Y0059058D01*
X0409912Y0059089D01*
X0410057Y0059116D01*
X0410204Y0059139D01*
X0410351Y0059158D01*
X0410499Y0059173D01*
X0410646Y0059184D01*
X0410795Y0059191D01*
X0410943Y0059194D01*
X0411091Y0059193D01*
X0411239Y0059188D01*
X0411387Y0059179D01*
X0411535Y0059166D01*
X0411683Y0059149D01*
X0411829Y0059128D01*
X0411976Y0059103D01*
X0412121Y0059074D01*
X0412266Y0059042D01*
X0412409Y0059005D01*
X0412552Y0058965D01*
X0412694Y0058920D01*
X0412834Y0058872D01*
X0412973Y0058820D01*
X0413110Y0058765D01*
X0413246Y0058705D01*
X0413381Y0058642D01*
X0413513Y0058576D01*
X0413644Y0058506D01*
X0413773Y0058432D01*
X0413899Y0058355D01*
X0414024Y0058275D01*
X0414146Y0058191D01*
X0414267Y0058104D01*
X0414384Y0058014D01*
X0414500Y0057920D01*
X0414612Y0057824D01*
X0414722Y0057725D01*
X0414830Y0057622D01*
X0414934Y0057517D01*
X0415036Y0057409D01*
X0415134Y0057298D01*
X0415230Y0057185D01*
X0415323Y0057069D01*
X0415412Y0056951D01*
X0415498Y0056830D01*
X0415581Y0056707D01*
X0415661Y0056582D01*
X0415737Y0056455D01*
X0415810Y0056325D01*
X0415879Y0056194D01*
X0415944Y0056061D01*
X0416007Y0055927D01*
X0416065Y0055790D01*
X0416120Y0055652D01*
X0416170Y0055513D01*
X0416218Y0055372D01*
X0416261Y0055231D01*
X0416301Y0055088D01*
X0416336Y0054944D01*
X0416368Y0054799D01*
X0416396Y0054653D01*
X0416420Y0054507D01*
X0416440Y0054360D01*
X0416456Y0054212D01*
X0416468Y0054065D01*
X0416476Y0053916D01*
X0416480Y0053768D01*
X0416480Y0053620D01*
X0416476Y0053472D01*
X0416468Y0053323D01*
X0416456Y0053176D01*
X0416440Y0053028D01*
X0416420Y0052881D01*
X0416396Y0052735D01*
X0416368Y0052589D01*
X0416336Y0052444D01*
X0416301Y0052300D01*
X0416261Y0052157D01*
X0416218Y0052016D01*
X0416170Y0051875D01*
X0416120Y0051736D01*
X0416065Y0051598D01*
X0416007Y0051461D01*
X0415944Y0051327D01*
X0415879Y0051194D01*
X0415810Y0051063D01*
X0415737Y0050933D01*
X0415661Y0050806D01*
X0415581Y0050681D01*
X0415498Y0050558D01*
X0415412Y0050437D01*
X0415323Y0050319D01*
X0415230Y0050203D01*
X0415134Y0050090D01*
X0415036Y0049979D01*
X0414934Y0049871D01*
X0414830Y0049766D01*
X0414722Y0049663D01*
X0414612Y0049564D01*
X0414500Y0049468D01*
X0414384Y0049374D01*
X0414267Y0049284D01*
X0414146Y0049197D01*
X0414024Y0049113D01*
X0413899Y0049033D01*
X0413773Y0048956D01*
X0413644Y0048882D01*
X0413513Y0048812D01*
X0413381Y0048746D01*
X0413246Y0048683D01*
X0413110Y0048623D01*
X0412973Y0048568D01*
X0412834Y0048516D01*
X0412694Y0048468D01*
X0412552Y0048423D01*
X0412409Y0048383D01*
X0412266Y0048346D01*
X0412121Y0048314D01*
X0411976Y0048285D01*
X0411829Y0048260D01*
X0411683Y0048239D01*
X0411535Y0048222D01*
X0411387Y0048209D01*
X0411239Y0048200D01*
X0411091Y0048195D01*
X0410943Y0048194D01*
X0410795Y0048197D01*
X0410646Y0048204D01*
X0410499Y0048215D01*
X0410351Y0048230D01*
X0410204Y0048249D01*
X0410057Y0048272D01*
X0409912Y0048299D01*
X0409766Y0048330D01*
X0409622Y0048364D01*
X0409479Y0048403D01*
X0409337Y0048445D01*
X0409196Y0048491D01*
X0409056Y0048541D01*
X0408918Y0048595D01*
X0408781Y0048653D01*
X0408646Y0048714D01*
X0408513Y0048778D01*
X0408381Y0048847D01*
X0408251Y0048919D01*
X0408124Y0048994D01*
X0407998Y0049073D01*
X0407874Y0049155D01*
X0407753Y0049240D01*
X0407634Y0049329D01*
X0407518Y0049420D01*
X0407404Y0049515D01*
X0407292Y0049613D01*
X0407184Y0049714D01*
X0407078Y0049818D01*
X0406975Y0049925D01*
X0406875Y0050034D01*
X0406777Y0050146D01*
X0406683Y0050261D01*
X0406592Y0050378D01*
X0406504Y0050497D01*
X0406420Y0050619D01*
X0406339Y0050743D01*
X0406261Y0050869D01*
X0406186Y0050998D01*
X0406115Y0051128D01*
X0406048Y0051260D01*
X0405984Y0051394D01*
X0405924Y0051529D01*
X0405867Y0051667D01*
X0405815Y0051805D01*
X0405765Y0051945D01*
X0405720Y0052086D01*
X0405679Y0052229D01*
X0405641Y0052372D01*
X0405607Y0052517D01*
X0405578Y0052662D01*
X0405552Y0052808D01*
X0405530Y0052955D01*
X0405512Y0053102D01*
X0405498Y0053250D01*
X0405488Y0053398D01*
X0405482Y0053546D01*
X0405480Y0053694D01*
X0044259Y0074127D02*
X0044261Y0074275D01*
X0044267Y0074423D01*
X0044277Y0074571D01*
X0044291Y0074719D01*
X0044309Y0074866D01*
X0044331Y0075013D01*
X0044357Y0075159D01*
X0044386Y0075304D01*
X0044420Y0075449D01*
X0044458Y0075592D01*
X0044499Y0075735D01*
X0044544Y0075876D01*
X0044594Y0076016D01*
X0044646Y0076154D01*
X0044703Y0076292D01*
X0044763Y0076427D01*
X0044827Y0076561D01*
X0044894Y0076693D01*
X0044965Y0076823D01*
X0045040Y0076952D01*
X0045118Y0077078D01*
X0045199Y0077202D01*
X0045283Y0077324D01*
X0045371Y0077443D01*
X0045462Y0077560D01*
X0045556Y0077675D01*
X0045654Y0077787D01*
X0045754Y0077896D01*
X0045857Y0078003D01*
X0045963Y0078107D01*
X0046071Y0078208D01*
X0046183Y0078306D01*
X0046297Y0078401D01*
X0046413Y0078492D01*
X0046532Y0078581D01*
X0046653Y0078666D01*
X0046777Y0078748D01*
X0046903Y0078827D01*
X0047030Y0078902D01*
X0047160Y0078974D01*
X0047292Y0079043D01*
X0047425Y0079107D01*
X0047560Y0079168D01*
X0047697Y0079226D01*
X0047835Y0079280D01*
X0047975Y0079330D01*
X0048116Y0079376D01*
X0048258Y0079418D01*
X0048401Y0079457D01*
X0048545Y0079491D01*
X0048691Y0079522D01*
X0048836Y0079549D01*
X0048983Y0079572D01*
X0049130Y0079591D01*
X0049278Y0079606D01*
X0049425Y0079617D01*
X0049574Y0079624D01*
X0049722Y0079627D01*
X0049870Y0079626D01*
X0050018Y0079621D01*
X0050166Y0079612D01*
X0050314Y0079599D01*
X0050462Y0079582D01*
X0050608Y0079561D01*
X0050755Y0079536D01*
X0050900Y0079507D01*
X0051045Y0079475D01*
X0051188Y0079438D01*
X0051331Y0079398D01*
X0051473Y0079353D01*
X0051613Y0079305D01*
X0051752Y0079253D01*
X0051889Y0079198D01*
X0052025Y0079138D01*
X0052160Y0079075D01*
X0052292Y0079009D01*
X0052423Y0078939D01*
X0052552Y0078865D01*
X0052678Y0078788D01*
X0052803Y0078708D01*
X0052925Y0078624D01*
X0053046Y0078537D01*
X0053163Y0078447D01*
X0053279Y0078353D01*
X0053391Y0078257D01*
X0053501Y0078158D01*
X0053609Y0078055D01*
X0053713Y0077950D01*
X0053815Y0077842D01*
X0053913Y0077731D01*
X0054009Y0077618D01*
X0054102Y0077502D01*
X0054191Y0077384D01*
X0054277Y0077263D01*
X0054360Y0077140D01*
X0054440Y0077015D01*
X0054516Y0076888D01*
X0054589Y0076758D01*
X0054658Y0076627D01*
X0054723Y0076494D01*
X0054786Y0076360D01*
X0054844Y0076223D01*
X0054899Y0076085D01*
X0054949Y0075946D01*
X0054997Y0075805D01*
X0055040Y0075664D01*
X0055080Y0075521D01*
X0055115Y0075377D01*
X0055147Y0075232D01*
X0055175Y0075086D01*
X0055199Y0074940D01*
X0055219Y0074793D01*
X0055235Y0074645D01*
X0055247Y0074498D01*
X0055255Y0074349D01*
X0055259Y0074201D01*
X0055259Y0074053D01*
X0055255Y0073905D01*
X0055247Y0073756D01*
X0055235Y0073609D01*
X0055219Y0073461D01*
X0055199Y0073314D01*
X0055175Y0073168D01*
X0055147Y0073022D01*
X0055115Y0072877D01*
X0055080Y0072733D01*
X0055040Y0072590D01*
X0054997Y0072449D01*
X0054949Y0072308D01*
X0054899Y0072169D01*
X0054844Y0072031D01*
X0054786Y0071894D01*
X0054723Y0071760D01*
X0054658Y0071627D01*
X0054589Y0071496D01*
X0054516Y0071366D01*
X0054440Y0071239D01*
X0054360Y0071114D01*
X0054277Y0070991D01*
X0054191Y0070870D01*
X0054102Y0070752D01*
X0054009Y0070636D01*
X0053913Y0070523D01*
X0053815Y0070412D01*
X0053713Y0070304D01*
X0053609Y0070199D01*
X0053501Y0070096D01*
X0053391Y0069997D01*
X0053279Y0069901D01*
X0053163Y0069807D01*
X0053046Y0069717D01*
X0052925Y0069630D01*
X0052803Y0069546D01*
X0052678Y0069466D01*
X0052552Y0069389D01*
X0052423Y0069315D01*
X0052292Y0069245D01*
X0052160Y0069179D01*
X0052025Y0069116D01*
X0051889Y0069056D01*
X0051752Y0069001D01*
X0051613Y0068949D01*
X0051473Y0068901D01*
X0051331Y0068856D01*
X0051188Y0068816D01*
X0051045Y0068779D01*
X0050900Y0068747D01*
X0050755Y0068718D01*
X0050608Y0068693D01*
X0050462Y0068672D01*
X0050314Y0068655D01*
X0050166Y0068642D01*
X0050018Y0068633D01*
X0049870Y0068628D01*
X0049722Y0068627D01*
X0049574Y0068630D01*
X0049425Y0068637D01*
X0049278Y0068648D01*
X0049130Y0068663D01*
X0048983Y0068682D01*
X0048836Y0068705D01*
X0048691Y0068732D01*
X0048545Y0068763D01*
X0048401Y0068797D01*
X0048258Y0068836D01*
X0048116Y0068878D01*
X0047975Y0068924D01*
X0047835Y0068974D01*
X0047697Y0069028D01*
X0047560Y0069086D01*
X0047425Y0069147D01*
X0047292Y0069211D01*
X0047160Y0069280D01*
X0047030Y0069352D01*
X0046903Y0069427D01*
X0046777Y0069506D01*
X0046653Y0069588D01*
X0046532Y0069673D01*
X0046413Y0069762D01*
X0046297Y0069853D01*
X0046183Y0069948D01*
X0046071Y0070046D01*
X0045963Y0070147D01*
X0045857Y0070251D01*
X0045754Y0070358D01*
X0045654Y0070467D01*
X0045556Y0070579D01*
X0045462Y0070694D01*
X0045371Y0070811D01*
X0045283Y0070930D01*
X0045199Y0071052D01*
X0045118Y0071176D01*
X0045040Y0071302D01*
X0044965Y0071431D01*
X0044894Y0071561D01*
X0044827Y0071693D01*
X0044763Y0071827D01*
X0044703Y0071962D01*
X0044646Y0072100D01*
X0044594Y0072238D01*
X0044544Y0072378D01*
X0044499Y0072519D01*
X0044458Y0072662D01*
X0044420Y0072805D01*
X0044386Y0072950D01*
X0044357Y0073095D01*
X0044331Y0073241D01*
X0044309Y0073388D01*
X0044291Y0073535D01*
X0044277Y0073683D01*
X0044267Y0073831D01*
X0044261Y0073979D01*
X0044259Y0074127D01*
X0024464Y0132434D02*
X0024466Y0132486D01*
X0024472Y0132538D01*
X0024482Y0132589D01*
X0024495Y0132639D01*
X0024513Y0132689D01*
X0024534Y0132736D01*
X0024558Y0132782D01*
X0024587Y0132826D01*
X0024618Y0132868D01*
X0024652Y0132907D01*
X0024689Y0132944D01*
X0024729Y0132977D01*
X0024772Y0133008D01*
X0024816Y0133035D01*
X0024862Y0133059D01*
X0024911Y0133079D01*
X0024960Y0133095D01*
X0025011Y0133108D01*
X0025062Y0133117D01*
X0025114Y0133122D01*
X0025166Y0133123D01*
X0025218Y0133120D01*
X0025270Y0133113D01*
X0025321Y0133102D01*
X0025371Y0133088D01*
X0025420Y0133069D01*
X0025467Y0133047D01*
X0025512Y0133022D01*
X0025556Y0132993D01*
X0025597Y0132961D01*
X0025636Y0132926D01*
X0025671Y0132888D01*
X0025704Y0132847D01*
X0025734Y0132805D01*
X0025760Y0132760D01*
X0025783Y0132713D01*
X0025802Y0132664D01*
X0025818Y0132614D01*
X0025830Y0132564D01*
X0025838Y0132512D01*
X0025842Y0132460D01*
X0025842Y0132408D01*
X0025838Y0132356D01*
X0025830Y0132304D01*
X0025818Y0132254D01*
X0025802Y0132204D01*
X0025783Y0132155D01*
X0025760Y0132108D01*
X0025734Y0132063D01*
X0025704Y0132021D01*
X0025671Y0131980D01*
X0025636Y0131942D01*
X0025597Y0131907D01*
X0025556Y0131875D01*
X0025512Y0131846D01*
X0025467Y0131821D01*
X0025420Y0131799D01*
X0025371Y0131780D01*
X0025321Y0131766D01*
X0025270Y0131755D01*
X0025218Y0131748D01*
X0025166Y0131745D01*
X0025114Y0131746D01*
X0025062Y0131751D01*
X0025011Y0131760D01*
X0024960Y0131773D01*
X0024911Y0131789D01*
X0024862Y0131809D01*
X0024816Y0131833D01*
X0024772Y0131860D01*
X0024729Y0131891D01*
X0024689Y0131924D01*
X0024652Y0131961D01*
X0024618Y0132000D01*
X0024587Y0132042D01*
X0024558Y0132086D01*
X0024534Y0132132D01*
X0024513Y0132179D01*
X0024495Y0132229D01*
X0024482Y0132279D01*
X0024472Y0132330D01*
X0024466Y0132382D01*
X0024464Y0132434D01*
D13*
X0120468Y0133576D03*
X0120468Y0143576D03*
X0130468Y0143576D03*
X0130468Y0133576D03*
X0130468Y0123576D03*
X0120468Y0123576D03*
X0120468Y0113576D03*
X0130468Y0113576D03*
X0130468Y0103576D03*
X0120468Y0103576D03*
X0120468Y0153576D03*
X0120468Y0163576D03*
X0130468Y0163576D03*
X0130468Y0153576D03*
X0187397Y0152749D03*
X0197397Y0152749D03*
X0197397Y0142749D03*
X0197397Y0132749D03*
X0187397Y0132749D03*
X0187397Y0142749D03*
X0187397Y0162749D03*
X0197397Y0162749D03*
X0197397Y0122749D03*
X0197397Y0112749D03*
X0187397Y0112749D03*
X0187397Y0122749D03*
X0187397Y0102749D03*
X0197397Y0102749D03*
X0311491Y0100938D03*
X0311491Y0110938D03*
X0321491Y0110938D03*
X0321491Y0100938D03*
X0321491Y0090938D03*
X0311491Y0090938D03*
X0311491Y0080938D03*
X0311491Y0070938D03*
X0321491Y0070938D03*
X0321491Y0080938D03*
X0321491Y0120938D03*
X0311491Y0120938D03*
X0311491Y0130938D03*
X0321491Y0130938D03*
X0189523Y0234324D03*
X0179523Y0234324D03*
X0179523Y0244324D03*
X0179523Y0254324D03*
X0179523Y0264324D03*
X0189523Y0264324D03*
X0189523Y0254324D03*
X0189523Y0244324D03*
X0189523Y0274324D03*
X0189523Y0284324D03*
X0179523Y0284324D03*
X0179523Y0274324D03*
X0179523Y0294324D03*
X0189523Y0294324D03*
X0130468Y0298025D03*
X0120468Y0298025D03*
X0120468Y0288025D03*
X0130468Y0288025D03*
X0130468Y0278025D03*
X0120468Y0278025D03*
X0120468Y0268025D03*
X0130468Y0268025D03*
X0130468Y0258025D03*
X0120468Y0258025D03*
X0120468Y0248025D03*
X0130468Y0248025D03*
X0130468Y0238025D03*
X0120468Y0238025D03*
D14*
X0057733Y0246962D02*
X0050683Y0246962D01*
X0050683Y0227277D02*
X0057733Y0227277D01*
X0054741Y0178221D02*
X0047691Y0178221D01*
X0047691Y0158536D02*
X0054741Y0158536D01*
X0117673Y0034660D02*
X0117673Y0027610D01*
X0137358Y0027610D02*
X0137358Y0034660D01*
X0176728Y0034660D02*
X0176728Y0027610D01*
X0196413Y0027610D02*
X0196413Y0034660D01*
X0306649Y0030723D02*
X0306649Y0023673D01*
X0326334Y0023673D02*
X0326334Y0030723D01*
X0408518Y0138340D02*
X0415568Y0138340D01*
X0415568Y0158025D02*
X0408518Y0158025D01*
X0409505Y0224954D02*
X0402455Y0224954D01*
X0402455Y0244639D02*
X0409505Y0244639D01*
X0409505Y0291883D02*
X0402455Y0291883D01*
X0402455Y0311568D02*
X0409505Y0311568D01*
X0409505Y0354875D02*
X0402455Y0354875D01*
X0402455Y0374560D02*
X0409505Y0374560D01*
X0059034Y0310569D02*
X0051986Y0310741D01*
X0051505Y0291062D02*
X0058553Y0290890D01*
X0053560Y0353654D02*
X0046510Y0353654D01*
X0046510Y0373340D02*
X0053560Y0373340D01*
D15*
X0050035Y0353654D02*
X0050783Y0352906D01*
X0052712Y0352906D01*
X0050783Y0352906D02*
X0040901Y0352906D01*
X0025153Y0337158D01*
X0025153Y0278103D01*
X0038026Y0290976D01*
X0055029Y0290976D01*
X0025153Y0278103D02*
X0025153Y0207237D01*
X0045192Y0227277D01*
X0054208Y0227277D01*
X0025153Y0207237D02*
X0025153Y0167867D01*
X0034484Y0158536D01*
X0051216Y0158536D01*
X0049759Y0157080D01*
X0049759Y0104127D01*
X0044759Y0104127D02*
X0054759Y0104127D01*
X0054759Y0044127D02*
X0044759Y0044127D01*
X0049759Y0044127D02*
X0049759Y0040899D01*
X0076334Y0014324D01*
X0179602Y0014324D01*
X0196413Y0031135D01*
X0176728Y0031135D02*
X0137358Y0031135D01*
X0306649Y0027198D02*
X0306649Y0039914D01*
X0320428Y0053694D01*
X0336176Y0053694D01*
X0375547Y0093064D01*
X0375547Y0214206D01*
X0405980Y0244639D01*
X0405980Y0224954D02*
X0405980Y0164088D01*
X0412043Y0158025D01*
X0412043Y0138340D02*
X0412043Y0084757D01*
X0410980Y0083694D01*
X0405980Y0083694D02*
X0415980Y0083694D01*
X0415980Y0023694D02*
X0405980Y0023694D01*
X0410980Y0023694D02*
X0329838Y0023694D01*
X0326334Y0027198D01*
X0397200Y0291883D02*
X0391295Y0297788D01*
X0391295Y0341095D01*
X0405074Y0354875D01*
X0407043Y0352906D01*
X0405980Y0354875D02*
X0405074Y0354875D01*
X0402751Y0357198D01*
X0285980Y0357198D01*
X0247436Y0388340D02*
X0396137Y0388340D01*
X0407948Y0376529D01*
X0405980Y0374560D01*
X0407948Y0376529D02*
X0414917Y0376529D01*
X0426728Y0364717D01*
X0426728Y0332316D01*
X0405980Y0311568D01*
X0405980Y0291883D02*
X0397200Y0291883D01*
X0247436Y0388340D02*
X0235980Y0376883D01*
D16*
X0297909Y0298971D02*
X0297909Y0293771D01*
X0307909Y0293771D02*
X0307909Y0298971D01*
X0317909Y0298971D02*
X0317909Y0293771D01*
X0327909Y0293771D02*
X0327909Y0298971D01*
X0337909Y0298971D02*
X0337909Y0293771D01*
X0347909Y0293771D02*
X0347909Y0298971D01*
X0357909Y0298971D02*
X0357909Y0293771D01*
X0367909Y0293771D02*
X0367909Y0298971D01*
X0367909Y0268971D02*
X0367909Y0263771D01*
X0357909Y0263771D02*
X0357909Y0268971D01*
X0347909Y0268971D02*
X0347909Y0263771D01*
X0337909Y0263771D02*
X0337909Y0268971D01*
X0327909Y0268971D02*
X0327909Y0263771D01*
X0317909Y0263771D02*
X0317909Y0268971D01*
X0307909Y0268971D02*
X0307909Y0263771D01*
X0297909Y0263771D02*
X0297909Y0268971D01*
X0299720Y0229680D02*
X0299720Y0224480D01*
X0309720Y0224480D02*
X0309720Y0229680D01*
X0319720Y0229680D02*
X0319720Y0224480D01*
X0329720Y0224480D02*
X0329720Y0229680D01*
X0339720Y0229680D02*
X0339720Y0224480D01*
X0349720Y0224480D02*
X0349720Y0229680D01*
X0359720Y0229680D02*
X0359720Y0224480D01*
X0359720Y0199680D02*
X0359720Y0194480D01*
X0349720Y0194480D02*
X0349720Y0199680D01*
X0339720Y0199680D02*
X0339720Y0194480D01*
X0329720Y0194480D02*
X0329720Y0199680D01*
X0319720Y0199680D02*
X0319720Y0194480D01*
X0309720Y0194480D02*
X0309720Y0199680D01*
X0299720Y0199680D02*
X0299720Y0194480D01*
D17*
X0259090Y0195387D03*
X0259090Y0205387D03*
X0249090Y0205387D03*
X0249090Y0195387D03*
X0249090Y0185387D03*
X0259090Y0185387D03*
X0259090Y0175387D03*
X0249090Y0175387D03*
X0249090Y0165387D03*
X0259090Y0165387D03*
X0259090Y0155387D03*
X0249090Y0155387D03*
X0249090Y0215387D03*
X0249090Y0225387D03*
X0249090Y0235387D03*
X0259090Y0235387D03*
X0259090Y0225387D03*
X0259090Y0215387D03*
X0259090Y0245387D03*
X0259090Y0255387D03*
X0249090Y0255387D03*
X0249090Y0245387D03*
X0249090Y0265387D03*
X0259090Y0265387D03*
D18*
X0276137Y0337513D03*
X0285980Y0357198D03*
X0276137Y0376883D03*
X0235980Y0376883D03*
X0235980Y0337513D03*
D19*
X0265310Y0366056D02*
X0265310Y0258418D01*
X0261373Y0254481D01*
X0288775Y0227080D01*
X0299720Y0227080D01*
X0299720Y0197080D01*
X0309720Y0197080D02*
X0309720Y0168969D01*
X0296137Y0155387D01*
X0259090Y0155387D01*
X0249090Y0155387D02*
X0249090Y0152591D01*
X0249562Y0152119D01*
X0249562Y0140308D01*
X0222003Y0112749D01*
X0197397Y0112749D01*
X0197397Y0132749D02*
X0216452Y0132749D01*
X0249090Y0165387D01*
X0249562Y0171804D02*
X0249562Y0174914D01*
X0249090Y0175387D01*
X0245625Y0175741D02*
X0249562Y0171804D01*
X0245625Y0175741D02*
X0241688Y0175741D01*
X0218696Y0152749D01*
X0197397Y0152749D01*
X0218460Y0215387D02*
X0249090Y0215387D01*
X0249090Y0225387D02*
X0228460Y0225387D01*
X0189523Y0264324D01*
X0189523Y0244324D02*
X0218460Y0215387D01*
X0238460Y0235387D02*
X0249090Y0235387D01*
X0238460Y0235387D02*
X0189523Y0284324D01*
X0276137Y0337513D02*
X0297909Y0315741D01*
X0297909Y0296371D01*
X0297909Y0266371D02*
X0297909Y0265190D01*
X0324365Y0238733D01*
X0324365Y0201725D01*
X0319720Y0197080D01*
X0265310Y0366056D02*
X0276137Y0376883D01*
M02*
