%
M48
M72
T01C0.01378
T02C0.03200
T03C0.04016
T04C0.04331
T05C0.04700
T06C0.05200
T07C0.05906
T08C0.11000
%
T01
X25153Y132434
T02
X299720Y197080
X309720Y197080
X319720Y197080
X329720Y197080
X339720Y197080
X349720Y197080
X359720Y197080
X359720Y227080
X349720Y227080
X339720Y227080
X329720Y227080
X319720Y227080
X309720Y227080
X299720Y227080
X297909Y266371
X307909Y266371
X317909Y266371
X327909Y266371
X337909Y266371
X347909Y266371
X357909Y266371
X367909Y266371
X367909Y296371
X357909Y296371
X347909Y296371
X337909Y296371
X327909Y296371
X317909Y296371
X307909Y296371
X297909Y296371
T03
X189523Y294324
X179523Y294324
X179523Y284324
X189523Y284324
X189523Y274324
X179523Y274324
X179523Y264324
X189523Y264324
X189523Y254324
X179523Y254324
X179523Y244324
X189523Y244324
X189523Y234324
X179523Y234324
X130468Y238025
X130468Y248025
X120468Y248025
X120468Y238025
X120468Y258025
X120468Y268025
X130468Y268025
X130468Y258025
X130468Y278025
X130468Y288025
X120468Y288025
X120468Y278025
X120468Y298025
X130468Y298025
X130468Y163576
X120468Y163576
X120468Y153576
X130468Y153576
X130468Y143576
X120468Y143576
X120468Y133576
X130468Y133576
X130468Y123576
X120468Y123576
X120468Y113576
X130468Y113576
X130468Y103576
X120468Y103576
X187397Y102749
X197397Y102749
X197397Y112749
X197397Y122749
X187397Y122749
X187397Y112749
X187397Y132749
X197397Y132749
X197397Y142749
X197397Y152749
X187397Y152749
X187397Y142749
X187397Y162749
X197397Y162749
X311491Y130938
X311491Y120938
X321491Y120938
X321491Y130938
X321491Y110938
X311491Y110938
X311491Y100938
X321491Y100938
X321491Y90938
X311491Y90938
X311491Y80938
X311491Y70938
X321491Y70938
X321491Y80938
T04
X259090Y155387
X259090Y165387
X249090Y165387
X249090Y155387
X249090Y175387
X249090Y185387
X259090Y185387
X259090Y175387
X259090Y195387
X259090Y205387
X249090Y205387
X249090Y195387
X249090Y215387
X249090Y225387
X249090Y235387
X259090Y235387
X259090Y225387
X259090Y215387
X259090Y245387
X259090Y255387
X249090Y255387
X249090Y245387
X249090Y265387
X259090Y265387
T05
X405980Y244639
X405980Y224954
X405980Y291883
X405980Y311568
X405980Y354875
X405980Y374560
X412043Y158025
X412043Y138340
X326334Y27198
X306649Y27198
X196413Y31135
X176728Y31135
X137358Y31135
X117673Y31135
X51216Y158536
X51216Y178221
X54208Y227277
X54208Y246962
X55029Y290976
X55510Y310655
X50035Y353654
X50035Y373340
T06
X49759Y44127
X49759Y104127
X410980Y83694
X410980Y23694
T07
X276137Y337513
X285980Y357198
X276137Y376883
X235980Y376883
X235980Y337513
T08
X49759Y74127
X410980Y53694
M30
