G75*
%MOIN*%
%OFA0B0*%
%FSLAX25Y25*%
%IPPOS*%
%LPD*%
%AMOC8*
5,1,8,0,0,1.08239X$1,22.5*
%
%ADD10C,0.02178*%
%ADD11C,0.06824*%
%ADD12C,0.07850*%
%ADD13C,0.10800*%
%ADD14C,0.11800*%
%ADD15C,0.06000*%
%ADD16C,0.07296*%
%ADD17C,0.09658*%
D10*
X0025153Y0132434D03*
D11*
X0120468Y0133576D03*
X0120468Y0143576D03*
X0130468Y0143576D03*
X0130468Y0133576D03*
X0130468Y0123576D03*
X0120468Y0123576D03*
X0120468Y0113576D03*
X0130468Y0113576D03*
X0130468Y0103576D03*
X0120468Y0103576D03*
X0120468Y0153576D03*
X0120468Y0163576D03*
X0130468Y0163576D03*
X0130468Y0153576D03*
X0187397Y0152749D03*
X0197397Y0152749D03*
X0197397Y0142749D03*
X0197397Y0132749D03*
X0187397Y0132749D03*
X0187397Y0142749D03*
X0187397Y0162749D03*
X0197397Y0162749D03*
X0197397Y0122749D03*
X0197397Y0112749D03*
X0187397Y0112749D03*
X0187397Y0122749D03*
X0187397Y0102749D03*
X0197397Y0102749D03*
X0311491Y0100938D03*
X0311491Y0110938D03*
X0321491Y0110938D03*
X0321491Y0100938D03*
X0321491Y0090938D03*
X0311491Y0090938D03*
X0311491Y0080938D03*
X0311491Y0070938D03*
X0321491Y0070938D03*
X0321491Y0080938D03*
X0321491Y0120938D03*
X0311491Y0120938D03*
X0311491Y0130938D03*
X0321491Y0130938D03*
X0189523Y0234324D03*
X0179523Y0234324D03*
X0179523Y0244324D03*
X0179523Y0254324D03*
X0179523Y0264324D03*
X0189523Y0264324D03*
X0189523Y0254324D03*
X0189523Y0244324D03*
X0189523Y0274324D03*
X0189523Y0284324D03*
X0179523Y0284324D03*
X0179523Y0274324D03*
X0179523Y0294324D03*
X0189523Y0294324D03*
X0130468Y0298025D03*
X0120468Y0298025D03*
X0120468Y0288025D03*
X0130468Y0288025D03*
X0130468Y0278025D03*
X0120468Y0278025D03*
X0120468Y0268025D03*
X0130468Y0268025D03*
X0130468Y0258025D03*
X0120468Y0258025D03*
X0120468Y0248025D03*
X0130468Y0248025D03*
X0130468Y0238025D03*
X0120468Y0238025D03*
D12*
X0057733Y0246962D02*
X0050683Y0246962D01*
X0050683Y0227277D02*
X0057733Y0227277D01*
X0054741Y0178221D02*
X0047691Y0178221D01*
X0047691Y0158536D02*
X0054741Y0158536D01*
X0117673Y0034660D02*
X0117673Y0027610D01*
X0137358Y0027610D02*
X0137358Y0034660D01*
X0176728Y0034660D02*
X0176728Y0027610D01*
X0196413Y0027610D02*
X0196413Y0034660D01*
X0306649Y0030723D02*
X0306649Y0023673D01*
X0326334Y0023673D02*
X0326334Y0030723D01*
X0408518Y0138340D02*
X0415568Y0138340D01*
X0415568Y0158025D02*
X0408518Y0158025D01*
X0409505Y0224954D02*
X0402455Y0224954D01*
X0402455Y0244639D02*
X0409505Y0244639D01*
X0409505Y0291883D02*
X0402455Y0291883D01*
X0402455Y0311568D02*
X0409505Y0311568D01*
X0409505Y0354875D02*
X0402455Y0354875D01*
X0402455Y0374560D02*
X0409505Y0374560D01*
X0059034Y0310569D02*
X0051986Y0310741D01*
X0051505Y0291062D02*
X0058553Y0290890D01*
X0053560Y0353654D02*
X0046510Y0353654D01*
X0046510Y0373340D02*
X0053560Y0373340D01*
D13*
X0054759Y0044127D02*
X0044759Y0044127D01*
X0044759Y0104127D02*
X0054759Y0104127D01*
X0405980Y0083694D02*
X0415980Y0083694D01*
X0415980Y0023694D02*
X0405980Y0023694D01*
D14*
X0410980Y0053694D03*
X0049759Y0074127D03*
D15*
X0299720Y0194480D02*
X0299720Y0199680D01*
X0309720Y0199680D02*
X0309720Y0194480D01*
X0319720Y0194480D02*
X0319720Y0199680D01*
X0329720Y0199680D02*
X0329720Y0194480D01*
X0339720Y0194480D02*
X0339720Y0199680D01*
X0349720Y0199680D02*
X0349720Y0194480D01*
X0359720Y0194480D02*
X0359720Y0199680D01*
X0359720Y0224480D02*
X0359720Y0229680D01*
X0349720Y0229680D02*
X0349720Y0224480D01*
X0339720Y0224480D02*
X0339720Y0229680D01*
X0329720Y0229680D02*
X0329720Y0224480D01*
X0319720Y0224480D02*
X0319720Y0229680D01*
X0309720Y0229680D02*
X0309720Y0224480D01*
X0299720Y0224480D02*
X0299720Y0229680D01*
X0297909Y0263771D02*
X0297909Y0268971D01*
X0307909Y0268971D02*
X0307909Y0263771D01*
X0317909Y0263771D02*
X0317909Y0268971D01*
X0327909Y0268971D02*
X0327909Y0263771D01*
X0337909Y0263771D02*
X0337909Y0268971D01*
X0347909Y0268971D02*
X0347909Y0263771D01*
X0357909Y0263771D02*
X0357909Y0268971D01*
X0367909Y0268971D02*
X0367909Y0263771D01*
X0367909Y0293771D02*
X0367909Y0298971D01*
X0357909Y0298971D02*
X0357909Y0293771D01*
X0347909Y0293771D02*
X0347909Y0298971D01*
X0337909Y0298971D02*
X0337909Y0293771D01*
X0327909Y0293771D02*
X0327909Y0298971D01*
X0317909Y0298971D02*
X0317909Y0293771D01*
X0307909Y0293771D02*
X0307909Y0298971D01*
X0297909Y0298971D02*
X0297909Y0293771D01*
D16*
X0259090Y0265387D03*
X0249090Y0265387D03*
X0249090Y0255387D03*
X0259090Y0255387D03*
X0259090Y0245387D03*
X0249090Y0245387D03*
X0249090Y0235387D03*
X0259090Y0235387D03*
X0259090Y0225387D03*
X0249090Y0225387D03*
X0249090Y0215387D03*
X0259090Y0215387D03*
X0259090Y0205387D03*
X0249090Y0205387D03*
X0249090Y0195387D03*
X0259090Y0195387D03*
X0259090Y0185387D03*
X0249090Y0185387D03*
X0249090Y0175387D03*
X0259090Y0175387D03*
X0259090Y0165387D03*
X0249090Y0165387D03*
X0249090Y0155387D03*
X0259090Y0155387D03*
D17*
X0276137Y0337513D03*
X0285980Y0357198D03*
X0276137Y0376883D03*
X0235980Y0376883D03*
X0235980Y0337513D03*
M02*
